<svg width="33" height="33" viewBox="0 0 33 33" fill="none" xmlns="http://www.w3.org/2000/svg">
<path fill-rule="evenodd" clip-rule="evenodd" d="M16.4034 0.5C7.3405 0.5 0 7.8411 0 16.9047C0 24.1638 4.69546 30.295 11.2158 32.4687C12.036 32.6122 12.3435 32.1201 12.3435 31.6894C12.3435 31.2998 12.323 30.008 12.323 28.6341C8.20168 29.3928 7.13546 27.6293 6.80739 26.7065C6.62286 26.2349 5.82319 24.779 5.12605 24.3893C4.55193 24.0818 3.73176 23.323 5.10555 23.3025C6.39731 23.282 7.32 24.4919 7.62756 24.984C9.10386 27.4652 11.4618 26.768 12.405 26.3374C12.5486 25.2711 12.9792 24.5534 13.4508 24.1433C9.80101 23.7332 5.98723 22.3183 5.98723 16.0435C5.98723 14.2594 6.62286 12.783 7.66857 11.6347C7.50454 11.2246 6.93042 9.54309 7.8326 7.28745C7.8326 7.28745 9.20639 6.85682 12.3435 8.96893C13.6558 8.59982 15.0501 8.41527 16.4444 8.41527C17.8387 8.41527 19.2329 8.59982 20.5452 8.96893C23.6824 6.83632 25.0561 7.28745 25.0561 7.28745C25.9583 9.54309 25.3842 11.2246 25.2202 11.6347C26.2659 12.783 26.9015 14.2389 26.9015 16.0435C26.9015 22.3388 23.0672 23.7332 19.4175 24.1433C20.0121 24.6559 20.5247 25.6402 20.5247 27.1781C20.5247 29.3723 20.5042 31.1358 20.5042 31.6894C20.5042 32.1201 20.8118 32.6327 21.6319 32.4687C24.8883 31.3693 27.7179 29.2763 29.7226 26.4843C31.7272 23.6923 32.8058 20.3419 32.8067 16.9047C32.8067 7.8411 25.4662 0.5 16.4034 0.5Z" fill="white"/>
</svg>
