<svg xmlns="http://www.w3.org/2000/svg" width="198" height="197" fill="none"><path fill="#fff" d="M134.912 15.352c.81.24 1.55.57 2.221.99a7.67 7.67 0 0 1 2.447 2.278c.074.138.143.209.206.212.13-.055.457-.171.981-.349.647-.214.983-.326 1.009-.338.071-.014.208.02.412.102.223.09.354.164.395.223.071.093.074.245.01.457-.085.267-.464 1.236-1.136 2.906-.836 2.078-1.337 3.137-1.505 3.178-.089.007-.365-.082-.829-.27-.464-.186-.726-.313-.785-.38-.089-.1-.085-.325.012-.674a7.026 7.026 0 0 0 .132-1.854 4.238 4.238 0 0 0-.426-1.594c-.484-1.1-1.43-1.966-2.836-2.596-1.499-.668-2.665-.555-3.499.338-.197.223-.363.501-.497.835-.15.371-.215.722-.197 1.053.046.687.376 1.315.988 1.884.1.127.747.581 1.941 1.363 1.224.816 1.899 1.282 2.025 1.397a6.625 6.625 0 0 1 1.785 1.914c.94 1.521 1.206 3.191.798 5.01-.135.55-.396 1.199-.784 1.948a7.745 7.745 0 0 1-1.457 1.775c-.677.611-1.415 1.026-2.214 1.243-1.115.306-2.309.3-3.582-.018-.494-.112-1.212-.39-2.154-.834a1.305 1.305 0 0 0-.212-.117c-1.528-.81-2.648-1.723-3.359-2.742-.082-.119-.154-.18-.217-.184-.13.055-.457.171-.981.349-.647.214-.983.327-1.009.338-.071.014-.208-.02-.412-.101-.223-.09-.355-.165-.396-.224-.07-.093-.073-.245-.01-.457.086-.267.461-1.226 1.125-2.878.814-2.022 1.25-3.054 1.31-3.095a.635.635 0 0 1 .167-.094c.115-.018.396.062.841.241.482.194.753.325.813.392.1.126.086.347-.041.663-.347 1.024-.327 1.991.062 2.902.288.677.803 1.326 1.545 1.947a8.6 8.6 0 0 0 3.138 1.683c.156.041.294.075.412.101.565.098 1.081.047 1.549-.153.521-.222.963-.626 1.329-1.212.529-.886.594-1.798.194-2.735a2.424 2.424 0 0 0-.817-1.104c-.059-.067-.73-.542-2.014-1.425-1.231-.797-1.925-1.27-2.08-1.419-1.217-.942-1.998-2.108-2.345-3.497a5.93 5.93 0 0 1 .292-4.022c.586-1.295 1.431-2.27 2.535-2.925 1.06-.652 2.319-.889 3.778-.712.491.068.938.162 1.342.281ZM146.464 22.916l.716-.808.292.258c-.015-.013.69.639 2.116 1.955a205.194 205.194 0 0 0 3.727 3.303l2.173 1.845.292.259-.716.808-.716.808-1.213-1.074-1.212-1.074-4.298 4.85c-2.956 3.366-4.504 5.174-4.645 5.423a.94.94 0 0 0-.114.22c-.385.675-.529 1.335-.433 1.981.176 1.038.884 2.093 2.125 3.166 1.462 1.215 2.842 1.783 4.141 1.705.832-.065 1.695-.436 2.589-1.113.134-.121 1.575-1.717 4.323-4.788l4.058-4.58-1.212-1.075-1.213-1.074.716-.808.717-.809.224.2 1.599 1.496c.945.864 1.903 1.713 2.875 2.547l1.678 1.407.225.2-.716.808-.716.808-1.213-1.074-1.212-1.075-3.96 4.469c-2.692 3.038-4.099 4.611-4.22 4.718-1.005.953-2.159 1.547-3.463 1.782-1.443.27-2.901.047-4.376-.671a10.348 10.348 0 0 1-2.321-1.496c-1.494-1.27-2.587-2.6-3.28-3.989a8.732 8.732 0 0 1-.626-1.556 6.797 6.797 0 0 1-.295-2.426c.093-1.28.499-2.417 1.218-3.41.078-.118 1.456-1.69 4.135-4.713l3.94-4.446-1.213-1.074-1.212-1.074.716-.809ZM165.895 41.815l.895-.606 3.802 5.614c2.591 3.825 3.929 5.818 4.013 5.978.708 1.187 1.135 2.371 1.283 3.552.136 1.164-.056 2.236-.576 3.216-.197.35-.447.677-.75.979a4.853 4.853 0 0 1-1.324.933 4.53 4.53 0 0 1-2.687.153c-.967-.287-1.87-.799-2.707-1.536l-.26-.223.093.191c.801 1.752 1.015 3.299.642 4.638a5.145 5.145 0 0 1-1.167 2.022c-.126.135-.355.314-.686.538-.685.488-1.476.782-2.374.883-1.84.207-3.559-.512-5.158-2.159a24.233 24.233 0 0 1-.302-.339c-.369-.402-1.978-2.706-4.827-6.912l-4.054-5.986.894-.606.894-.606.908 1.342.909 1.341 6.731-4.56 6.731-4.559-.908-1.341-.909-1.341.894-.606Zm6.687 11.958-.068-.208-1.523-2.302-1.548-2.285-2.807 1.901-2.831 1.918 1.211 1.789c.841 1.242 1.304 1.907 1.388 1.995 1.001 1.157 2.224 1.464 3.667.921a.571.571 0 0 1 .166-.076c.482-.181.915-.45 1.301-.808 1.003-.873 1.351-1.821 1.044-2.845Zm-6.868 5.267-.043-.224-1.699-2.509-1.683-2.483-3.154 2.136-3.154 2.137 1.497 2.21c1.122 1.656 1.819 2.597 2.093 2.822 1.088.858 2.339.868 3.752.031a4.69 4.69 0 0 0 .621-.42c.563-.454.992-.89 1.289-1.308.526-.792.687-1.589.481-2.392ZM179.957 64.702l1.022-.35.126.37.874 2.745a240.002 240.002 0 0 0 1.726 5.053l1.114 3.075.136.398-1.022.349-1.022.349-.65-1.903-.659-1.93-7.694 2.628-7.694 2.627.417 1.221c.298.87.494 1.385.59 1.542.36.744.855 1.357 1.484 1.84 1.189.882 2.763 1.158 4.721.828.885-.133 1.45-.242 1.696-.326.019-.006.145.331.378 1.013l.349 1.022-.142.048c-.108-.005-1.519.318-4.234.97-2.803.64-4.227.958-4.271.952l-.142.049-2.783-8.148-2.773-8.12 1.022-.349 1.022-.349.523 1.533.524 1.533 7.694-2.627 7.693-2.628-.523-1.533-.524-1.533 1.022-.35ZM187.406 88.11l1.075-.103.04.418.22 2.932c.145 1.715.308 3.417.489 5.107l.343 2.95.038.39-1.076.102-1.075.103-.163-1.702-.163-1.703-8.093.775-8.093.775.163 1.703.163 1.702-1.075.103-1.075.103-.04-.418-.22-2.933a217.869 217.869 0 0 0-.489-5.106l-.343-2.951-.037-.388 1.075-.103 1.075-.103.163 1.702.163 1.702 8.093-.775 8.093-.775-.163-1.702-.163-1.702 1.075-.103ZM188.419 113.906a8.914 8.914 0 0 1-.356 2.405 7.671 7.671 0 0 1-1.534 2.971c-.112.108-.162.193-.148.255.088.11.288.394.6.851.381.565.58.858.597.88.034.064.038.206.014.424-.026.239-.062.386-.109.441-.07.093-.216.137-.437.133-.28-.011-1.315-.115-3.104-.311-2.227-.245-3.382-.443-3.466-.593-.031-.084-.02-.374.035-.871.055-.497.106-.783.155-.859.073-.112.29-.169.652-.169a7.058 7.058 0 0 0 1.822-.373 4.238 4.238 0 0 0 1.42-.84c.929-.763 1.508-1.907 1.736-3.431.239-1.623-.184-2.716-1.269-3.278a2.841 2.841 0 0 0-.938-.254 2.448 2.448 0 0 0-1.067.094c-.649.23-1.165.717-1.549 1.459-.094.13-.357.876-.789 2.237-.456 1.399-.722 2.174-.799 2.327a6.623 6.623 0 0 1-1.363 2.234c-1.211 1.316-2.747 2.022-4.609 2.119-.565.018-1.261-.058-2.087-.23a7.757 7.757 0 0 1-2.102-.925c-.771-.487-1.369-1.086-1.794-1.797-.595-.991-.911-2.143-.948-3.455-.025-.505.049-1.272.223-2.299.031-.097.049-.176.056-.235.367-1.69.945-3.015 1.735-3.974.093-.111.132-.197.119-.259-.089-.11-.289-.394-.601-.851-.38-.565-.579-.858-.597-.88-.033-.064-.038-.206-.014-.424.027-.239.063-.386.109-.441.071-.093.216-.137.437-.133.281.011 1.306.113 3.075.308 2.167.238 3.278.381 3.333.427.038.024.083.07.136.136.049.106.047.397-.005.874-.057.517-.11.813-.158.888-.095.131-.312.177-.65.14-1.08-.058-2.006.222-2.778.841-.574.46-1.06 1.131-1.459 2.013a8.598 8.598 0 0 0-.775 3.476c.003.161.007.303.014.424.058.57.246 1.053.565 1.451.353.441.862.758 1.525.952.996.271 1.891.087 2.686-.549.371-.261.652-.623.843-1.085.049-.075.325-.849.829-2.323.436-1.401.705-2.196.806-2.386.58-1.425 1.492-2.492 2.737-3.2a5.927 5.927 0 0 1 3.951-.803c1.405.215 2.572.766 3.5 1.653.913.845 1.481 1.994 1.704 3.447.066.49.097.946.091 1.368ZM183.402 129.877l.961.493-.178.347-1.368 2.535a205.446 205.446 0 0 0-2.274 4.431l-1.248 2.562-.178.347-.961-.493-.961-.493.74-1.441.739-1.441-2.935-1.507-2.963-1.521-1.863 3.63-1.849 3.603 2.962 1.521 2.936 1.507.74-1.442.74-1.441.96.493.961.493-.178.347-1.354 2.509a203.069 203.069 0 0 0-2.274 4.43 1569.51 1569.51 0 0 0-1.262 2.59l-.178.347-.961-.493-.961-.494.74-1.441.74-1.441-7.233-3.712-7.233-3.713-.74 1.442-.74 1.441-.961-.493-.96-.493.178-.347 1.354-2.508a205.446 205.446 0 0 0 2.274-4.431l1.262-2.59.178-.347.961.494.961.493-.74 1.441-.74 1.441 3.336 1.713 3.31 1.698 1.849-3.603 1.863-3.63-3.309-1.698-3.337-1.713-.739 1.441-.74 1.442-.961-.493-.961-.494.178-.347 1.369-2.534a205.446 205.446 0 0 0 2.274-4.431l1.248-2.563.178-.347.961.493.96.493-.739 1.442-.74 1.441 7.233 3.712 7.233 3.712.74-1.441.739-1.441.961.493ZM166.993 156.971l.756.771-6.639 6.513-6.661 6.533-.084-.085c-.07-.044-1.088-.852-3.052-2.427-1.895-1.56-2.905-2.376-3.032-2.448l-.084-.085.771-.757.771-.756.4.322c1.039.802 1.904 1.341 2.594 1.616 1.325.465 2.671.196 4.039-.81.427-.335 1.169-1.021 2.226-2.057l1.349-1.324-2.29-2.334-2.311-2.356-.385.378c-.657.645-1.058 1.192-1.204 1.643a1.436 1.436 0 0 0-.073.997c.122.524.519 1.129 1.191 1.815l.273.278-.771.756-.771.757-3.214-3.277-3.214-3.277.771-.756.771-.757.273.279c.672.685 1.27 1.094 1.792 1.226.324.102.656.084.997-.054.454-.137 1.009-.527 1.666-1.172l.386-.378-2.563-2.613-2.584-2.634-1.392 1.366c-1.014.994-1.578 1.561-1.693 1.702-1.358 1.528-1.924 3.008-1.697 4.438.012.156.081.411.205.766.233.752.782 1.754 1.647 3.007.251.314.391.513.418.598l.063.064-.771.757-.771.756-.063-.064c-.014-.043-.872-1.246-2.574-3.61-1.717-2.379-2.582-3.589-2.596-3.632l-.063-.064 6.832-6.701 6.832-6.702.756.771.756.771-1.156 1.134-1.157 1.135 5.63 5.739 5.63 5.74 1.157-1.134 1.156-1.135.757.771ZM148.806 173.201l.562.923-5.305 3.228c-3.599 2.166-5.718 3.397-6.357 3.693-1.889.821-3.617 1.135-5.186.943-1.219-.195-2.241-.72-3.066-1.576-.297-.335-.562-.77-.795-1.307a4.97 4.97 0 0 1-.217-1.8 5.358 5.358 0 0 1 .64-2.18c.203-.358.494-.804.871-1.338l.194-.259-.267.023c-.81-.023-1.49-.159-2.04-.409-.427-.162-.771-.363-1.033-.601-.276-.184-.785-.752-1.528-1.704-.771-.959-1.248-1.512-1.431-1.658-.814-.722-1.648-.823-2.502-.303-.188.114-.314.214-.379.3-.165.499-.136 1.008.087 1.528.114.188.122.394.024.617-.088.124-.459.361-1.112.712-.12.073-.193.106-.221.099a.547.547 0 0 1-.417-.167c-.162-.112-.306-.387-.433-.826-.34-1.174-.139-2.21.604-3.106.139-.155.284-.302.434-.44.478-.408 1.385-.936 2.722-1.586 2.487-1.185 4.365-1.158 5.635.083.096.082.189.177.279.286.09.11.426.643 1.008 1.599.635 1.043 1.083 1.683 1.345 1.921.697.607 1.458.857 2.284.753.301-.043.905-.34 1.811-.891l.281-.172 1.359-.826-1.872-3.076-1.887-3.101-1.384.842-1.383.842-.562-.922-.561-.923.333-.202 2.44-1.415a200.924 200.924 0 0 0 4.177-2.542l2.378-1.517.333-.203.562.923.561.922-1.384.842-1.384.842 4.227 6.946 4.226 6.945 1.384-.842 1.384-.842.561.922Zm-10.649 5.181c.147-.066.751-.422 1.81-1.066l1.384-.842-1.872-3.076-1.871-3.075-1.64.998c-1.22.766-1.992 1.306-2.316 1.62a4.116 4.116 0 0 0-.882 1.204c-.169.454-.138.985.092 1.594.268.633.686 1.339 1.253 2.117.53.755 1.11 1.151 1.741 1.188.117 0 .242-.006.376-.017.603-.086 1.245-.301 1.925-.645ZM63.395 183.497a8.878 8.878 0 0 1-2.265-.884 7.675 7.675 0 0 1-2.551-2.16c-.08-.134-.153-.201-.216-.202a18.79 18.79 0 0 1-.963.395c-.636.244-.967.373-.992.385-.07.018-.209-.009-.417-.081-.226-.079-.361-.148-.405-.205-.075-.09-.085-.242-.032-.456.074-.271.406-1.256.998-2.956.737-2.115 1.188-3.197 1.354-3.246.088-.011.369.065.84.23.473.164.74.279.803.343.093.096.1.321.02.674a7.064 7.064 0 0 0-.045 1.859c.062.551.229 1.075.5 1.572.536 1.076 1.522 1.896 2.956 2.459 1.529.596 2.689.429 3.48-.503.186-.232.338-.517.457-.857.132-.378.18-.732.147-1.061-.08-.684-.438-1.296-1.076-1.836-.106-.122-.774-.545-2.004-1.27-1.26-.757-1.957-1.19-2.088-1.3a6.612 6.612 0 0 1-1.873-1.828c-1.011-1.474-1.356-3.13-1.034-4.966.109-.555.34-1.216.691-1.983a7.756 7.756 0 0 1 1.372-1.841c.648-.643 1.365-1.092 2.153-1.347 1.1-.358 2.292-.409 3.58-.151.498.089 1.228.333 2.19.732.088.052.16.087.217.107 1.565.736 2.727 1.596 3.485 2.58.087.115.162.173.226.174.127-.061.448-.193.963-.395.636-.244.967-.373.992-.385.07-.018.209.009.416.082.227.079.362.147.406.204.074.09.085.242.031.456-.073.271-.402 1.247-.988 2.928-.717 2.059-1.104 3.11-1.162 3.153a.651.651 0 0 1-.163.102c-.114.024-.397-.043-.85-.201-.492-.171-.769-.288-.83-.353-.107-.121-.104-.343.008-.664.299-1.039.233-2.005-.198-2.896-.32-.662-.865-1.286-1.635-1.872a8.602 8.602 0 0 0-3.215-1.533 10.96 10.96 0 0 0-.416-.082c-.568-.071-1.082.005-1.54.226-.51.246-.933.671-1.27 1.273-.486.911-.508 1.825-.065 2.741.171.42.46.775.868 1.065.062.064.755.507 2.079 1.328 1.267.738 1.983 1.178 2.145 1.319 1.26.884 2.095 2.012 2.507 3.383a5.927 5.927 0 0 1-.102 4.031c-.524 1.322-1.322 2.335-2.394 3.042-1.028.701-2.275.997-3.74.889a9.153 9.153 0 0 1-1.355-.218ZM51.5 176.487l-.677.841-.304-.245-2.206-1.853a211.377 211.377 0 0 0-3.879-3.123l-2.257-1.74-.304-.245.677-.841.678-.841 1.262 1.016 1.261 1.016 4.064-5.048c2.794-3.502 4.256-5.381 4.385-5.636a.975.975 0 0 0 .103-.225c.352-.692.465-1.359.34-1.999-.226-1.029-.983-2.049-2.273-3.062-1.517-1.145-2.923-1.648-4.216-1.508-.829.103-1.673.515-2.534 1.234-.129.127-1.493 1.789-4.092 4.986l-3.838 4.767 1.262 1.016 1.261 1.016-.677.841-.677.841-.234-.188-1.668-1.42a121.052 121.052 0 0 0-2.991-2.408l-1.744-1.327-.233-.188.677-.842.677-.841 1.262 1.016 1.262 1.016 3.744-4.65c2.546-3.162 3.877-4.799 3.993-4.912.96-.999 2.084-1.647 3.375-1.943 1.428-.339 2.896-.184 4.403.464.848.349 1.645.811 2.39 1.385 1.551 1.198 2.706 2.474 3.464 3.829.26.441.494.95.698 1.525.285.794.421 1.598.41 2.41-.033 1.283-.385 2.438-1.056 3.463-.072.122-1.375 1.756-3.91 4.903l-3.724 4.627 1.261 1.016 1.262 1.016-.677.841ZM31.199 158.525l-.865.647-4.063-5.428c-2.768-3.698-4.198-5.626-4.29-5.782-.763-1.152-1.246-2.315-1.449-3.487-.19-1.156-.05-2.236.424-3.24.18-.359.414-.697.702-1.013.34-.38.767-.711 1.28-.995a4.528 4.528 0 0 1 2.676-.279c.98.241 1.905.71 2.776 1.407l.27.21-.102-.186c-.882-1.713-1.169-3.247-.86-4.603a5.142 5.142 0 0 1 1.07-2.075c.12-.14.341-.33.661-.569.66-.52 1.437-.851 2.33-.994 1.828-.294 3.579.343 5.253 1.913.1.1.206.208.318.324.388.384 2.104 2.61 5.148 6.677l4.332 5.788-.864.647-.865.648-.97-1.297-.972-1.297-6.508 4.871-6.509 4.872.97 1.297.971 1.297-.864.647Zm-7.243-11.629.078.204 1.63 2.228 1.654 2.21 2.713-2.032 2.739-2.049-1.295-1.73c-.899-1.2-1.392-1.843-1.48-1.927-1.055-1.109-2.29-1.358-3.707-.747a.59.59 0 0 1-.162.083 3.936 3.936 0 0 0-1.261.869c-.961.919-1.264 1.883-.909 2.891Zm6.611-5.585.054.222 1.816 2.425 1.798 2.402 3.05-2.283 3.05-2.283-1.6-2.138c-1.199-1.601-1.94-2.507-2.223-2.72-1.128-.805-2.378-.756-3.75.147a4.687 4.687 0 0 0-.601.449c-.54.48-.949.935-1.225 1.367-.49.816-.612 1.619-.369 2.412ZM16.073 136.327l-1.004.397-.143-.363-1.003-2.7a236.225 236.225 0 0 0-1.962-4.967l-1.258-3.019-.154-.39 1.005-.397 1.004-.397.739 1.869.75 1.897 7.56-2.987 7.562-2.988-.474-1.199c-.338-.856-.56-1.36-.663-1.513a5.042 5.042 0 0 0-1.569-1.767c-1.23-.826-2.814-1.027-4.755-.605-.877.175-1.436.31-1.678.405-.019.008-.16-.324-.425-.993l-.397-1.005.14-.055c.107.001 1.502-.389 4.183-1.169 2.77-.772 4.177-1.156 4.222-1.152l.14-.055 3.163 8.008 3.153 7.98-1.004.396-1.005.397-.595-1.506-.595-1.507-7.562 2.987-7.56 2.988.595 1.507.595 1.506-1.005.397ZM7.53 113.296l-1.07.154-.06-.416-.358-2.919a219.757 219.757 0 0 0-.73-5.078l-.481-2.931-.055-.386 1.069-.153 1.069-.154.243 1.693.243 1.692 8.047-1.156 8.048-1.155-.243-1.693-.243-1.693 1.069-.153 1.069-.154.06.416.358 2.919c.222 1.685.465 3.378.73 5.078l.48 2.931.056.386-1.069.154-1.069.153-.243-1.693-.243-1.692-8.047 1.156-8.048 1.155.243 1.693.243 1.693-1.069.153ZM5.301 87.577a8.916 8.916 0 0 1 .241-2.42 7.676 7.676 0 0 1 1.393-3.039c.107-.113.152-.2.136-.262-.093-.106-.307-.38-.64-.821-.407-.547-.62-.83-.638-.852-.036-.062-.047-.203-.034-.423.015-.24.045-.388.088-.445.066-.096.21-.147.43-.154.281-.002 1.32.053 3.117.165 2.235.14 3.399.283 3.49.428.034.083.036.373.005.872-.031.5-.069.788-.114.865-.067.116-.282.183-.644.2a7.06 7.06 0 0 0-1.802.459c-.514.208-.973.51-1.379.906-.892.806-1.416 1.975-1.572 3.508-.162 1.634.312 2.705 1.423 3.215.273.118.589.188.948.21.4.025.753-.023 1.061-.144.638-.26 1.13-.771 1.479-1.531.088-.135.316-.892.683-2.272.389-1.418.618-2.206.688-2.362a6.624 6.624 0 0 1 1.256-2.296c1.148-1.37 2.65-2.149 4.504-2.333.564-.045 1.263-.002 2.096.13a7.76 7.76 0 0 1 2.143.826c.793.45 1.419 1.02 1.877 1.71.641.962 1.011 2.097 1.11 3.406.048.504.01 1.273-.114 2.307a1.287 1.287 0 0 0-.045.238c-.287 1.706-.802 3.056-1.546 4.052-.087.114-.123.202-.107.264.094.106.307.38.64.821.407.546.62.83.639.851.036.063.047.204.033.423-.015.24-.044.388-.088.446-.066.096-.21.147-.43.153-.28.003-1.31-.052-3.086-.163-2.176-.136-3.292-.225-3.35-.269a.645.645 0 0 1-.142-.13c-.054-.103-.066-.394-.036-.873.033-.519.072-.817.116-.894.089-.135.303-.192.642-.17 1.082.007 1.994-.317 2.736-.972.552-.487 1.006-1.18 1.363-2.08a8.6 8.6 0 0 0 .61-3.508c-.01-.16-.022-.302-.034-.423-.085-.566-.296-1.04-.633-1.422-.374-.424-.897-.718-1.568-.88-1.008-.223-1.894.002-2.657.676a2.425 2.425 0 0 0-.792 1.123c-.045.077-.284.864-.718 2.36-.37 1.42-.6 2.227-.693 2.421-.511 1.451-1.372 2.56-2.582 3.326a5.927 5.927 0 0 1-3.91.988c-1.413-.149-2.604-.644-3.574-1.486-.952-.8-1.573-1.922-1.864-3.363a9.178 9.178 0 0 1-.155-1.362ZM9.559 71.387l-.983-.447.161-.355 1.248-2.597a207.098 207.098 0 0 0 2.062-4.533l1.126-2.618.161-.356.983.448.983.447-.67 1.475-.672 1.474 3.004 1.367 3.031 1.379 1.69-3.714 1.677-3.686-3.03-1.38-3.005-1.366-.67 1.475-.671 1.474-.983-.447-.983-.447.161-.355 1.235-2.57a206.646 206.646 0 0 0 2.062-4.532l1.139-2.647.161-.355.983.448.983.447-.67 1.474-.672 1.475 7.4 3.367 7.4 3.367.671-1.475.671-1.474.983.447.983.447-.161.355-1.235 2.57a206.864 206.864 0 0 0-2.063 4.532l-1.138 2.647-.161.355-.983-.448-.983-.447.67-1.474.672-1.475-3.414-1.553-3.386-1.54-1.677 3.686-1.69 3.713 3.386 1.541 3.414 1.553.67-1.474.671-1.475.983.447.983.448-.161.355c.008-.019-.408.847-1.248 2.596a206.65 206.65 0 0 0-2.062 4.533l-1.126 2.619-.161.355-.983-.447-.983-.448.67-1.474.672-1.475-7.4-3.367-7.4-3.367-.671 1.475-.671 1.474-.983-.447ZM24.672 43.549l-.791-.734 6.324-6.819 6.345-6.84.088.082c.072.04 1.127.8 3.164 2.28 1.965 1.468 3.013 2.236 3.143 2.301l.088.082-.734.792-.735.792-.415-.303c-1.075-.752-1.964-1.25-2.667-1.492-1.345-.402-2.677-.07-3.995 1-.412.354-1.12 1.074-2.127 2.16l-1.285 1.385 2.397 2.224 2.42 2.244.367-.396c.625-.674 1-1.24 1.125-1.698.128-.344.137-.677.026-.999-.147-.518-.572-1.103-1.276-1.756l-.286-.265.734-.792.735-.792 3.365 3.122 3.365 3.121-.734.792-.735.792-.286-.266c-.703-.652-1.32-1.033-1.847-1.14a1.435 1.435 0 0 0-.994.1c-.447.16-.983.576-1.609 1.25l-.367.396 2.683 2.489 2.706 2.51 1.326-1.43c.966-1.041 1.502-1.635 1.61-1.78 1.285-1.591 1.78-3.096 1.486-4.514-.02-.155-.1-.407-.24-.755-.269-.74-.864-1.715-1.787-2.926-.266-.301-.415-.494-.447-.578l-.066-.06.735-.793.734-.791.066.06c.016.043.93 1.204 2.742 3.485 1.827 2.295 2.748 3.463 2.764 3.505l.066.061-6.508 7.017-6.508 7.016-.792-.735-.792-.734 1.102-1.188 1.102-1.187-5.895-5.468-5.894-5.468-1.102 1.188-1.102 1.188-.792-.735ZM42.073 26.48l-.604-.896 5.147-3.475c3.492-2.333 5.55-3.663 6.175-3.988 1.848-.91 3.56-1.305 5.136-1.186 1.226.137 2.272.613 3.136 1.43.313.32.598.742.856 1.267.215.604.315 1.2.302 1.787a5.37 5.37 0 0 1-.536 2.209c-.187.367-.456.826-.808 1.377l-.181.268.266-.035c.81-.016 1.495.088 2.057.312.434.142.787.326 1.06.552.284.17.82.713 1.607 1.63.815.92 1.318 1.45 1.507 1.588.847.683 1.685.745 2.514.185.182-.123.304-.23.364-.318.141-.506.089-1.013-.159-1.522-.123-.182-.14-.387-.053-.615.083-.128.442-.383 1.077-.764.116-.078.188-.115.216-.11a.551.551 0 0 1 .425.148c.167.104.324.373.47.804.396 1.157.244 2.201-.455 3.132-.132.161-.27.315-.414.46-.457.43-1.339 1-2.644 1.712-2.428 1.302-4.305 1.362-5.632.183a2.233 2.233 0 0 1-.293-.273c-.095-.105-.455-.621-1.082-1.55-.683-1.01-1.16-1.63-1.434-1.855-.724-.573-1.497-.787-2.317-.644-.299.057-.888.383-1.766.976l-.274.184-1.318.89 2.015 2.984 2.03 3.008 1.344-.906 1.342-.907.605.895.604.896-.323.218-2.371 1.528c-1.354.89-2.705 1.802-4.053 2.736l-2.304 1.628-.323.218-.604-.895-.605-.895 1.343-.907 1.343-.906-4.55-6.738-4.548-6.738-1.343.906-1.343.906-.604-.895Zm10.393-5.678c-.144.073-.73.457-1.758 1.15l-1.342.907 2.014 2.984 2.014 2.983 1.592-1.074c1.182-.822 1.928-1.398 2.236-1.727.342-.351.617-.766.825-1.245.147-.46.091-.99-.167-1.588-.298-.62-.748-1.305-1.352-2.056-.564-.729-1.163-1.097-1.795-1.104a4.91 4.91 0 0 0-.374.035c-.599.115-1.23.36-1.893.735ZM97.586 12.89c-.062-.24-.044-.54.053-.9.116-.362.263-.723.44-1.085.197-.381.394-.743.59-1.085.218-.342.395-.613.534-.814a3.906 3.906 0 0 1 1.458-1.393 4.317 4.317 0 0 1 1.975-.557c.84-.027 1.581.126 2.224.46.643.315 1.187.75 1.631 1.306a5.782 5.782 0 0 1 1.007 1.942 7.64 7.64 0 0 1 .35 2.247c.007.78-.077 1.51-.251 2.192a11.755 11.755 0 0 1-.703 1.986 19.299 19.299 0 0 1-1.004 1.9 90.599 90.599 0 0 1-1.154 1.87 19.99 19.99 0 0 1-2.075 2.807 93.32 93.32 0 0 1-2.408 2.601c-.099.101-.248.262-.446.484-.178.202-.376.413-.594.635a5.842 5.842 0 0 1-.685.546c-.22.162-.418.244-.598.245a.76.76 0 0 1-.451-.086 5.892 5.892 0 0 1-.453-.356 57.788 57.788 0 0 0-.454-.386 4.557 4.557 0 0 0-.362-.327 34.48 34.48 0 0 1-2.78-2.346 30.78 30.78 0 0 1-2.454-2.649 24.282 24.282 0 0 1-2.006-2.982 18.802 18.802 0 0 1-1.41-3.378c-.246-.818-.374-1.727-.383-2.727a8.296 8.296 0 0 1 .516-2.855 5.57 5.57 0 0 1 1.51-2.263c.695-.606 1.602-.914 2.722-.924.8-.006 1.481.108 2.043.343a4.065 4.065 0 0 1 1.418.888c.403.356.737.763 1 1.221.264.438.488.866.672 1.284l.528 2.156ZM96.922 183.821c.052.242.023.541-.089.897a8.225 8.225 0 0 1-.484 1.065 26.12 26.12 0 0 1-.634 1.061c-.231.332-.42.596-.566.792a3.907 3.907 0 0 1-1.514 1.332c-.63.32-1.296.479-1.996.476-.84-.007-1.575-.19-2.203-.551a4.711 4.711 0 0 1-1.577-1.371 5.79 5.79 0 0 1-.927-1.981 7.654 7.654 0 0 1-.258-2.259c.025-.78.139-1.506.34-2.18.202-.674.463-1.326.783-1.956.32-.63.68-1.249 1.08-1.857.4-.607.81-1.214 1.23-1.821a19.92 19.92 0 0 1 2.188-2.721 91.194 91.194 0 0 1 2.511-2.501c.104-.097.259-.252.466-.465.186-.194.393-.398.62-.611.226-.193.462-.365.707-.517.224-.153.427-.227.607-.221.14-.016.29.019.447.104.136.105.282.23.438.375.155.145.301.279.437.404.136.144.252.258.35.341.935.771 1.829 1.59 2.682 2.458a30.598 30.598 0 0 1 2.343 2.746 24.212 24.212 0 0 1 1.883 3.062 18.748 18.748 0 0 1 1.27 3.433c.214.827.305 1.74.273 2.74a8.306 8.306 0 0 1-.631 2.831 5.571 5.571 0 0 1-1.602 2.2c-.719.577-1.638.848-2.757.812-.8-.026-1.476-.168-2.028-.426a4.053 4.053 0 0 1-1.38-.944 4.876 4.876 0 0 1-.95-1.261 11.33 11.33 0 0 1-.618-1.311l-.44-2.175Z"/></svg>