<svg xmlns="http://www.w3.org/2000/svg" width="300" height="300" fill="none"><circle cx="150" cy="150" r="150" fill="#F19FC5"/><path fill="#113971" d="M192.663 24.61a14.86 14.86 0 0 1 3.775 1.474c1.643.855 3.061 2.055 4.252 3.6.134.223.254.335.359.336.213-.102.748-.322 1.606-.658 1.06-.407 1.611-.621 1.654-.642.116-.03.347.016.694.136.377.132.602.246.675.341.124.15.142.403.053.76-.122.452-.677 2.094-1.664 4.927-1.228 3.526-1.98 5.329-2.255 5.41-.148.018-.615-.11-1.402-.383-.787-.275-1.232-.465-1.336-.572-.156-.16-.167-.534-.033-1.123.162-1.073.187-2.106.074-3.098a7.072 7.072 0 0 0-.835-2.62c-.893-1.794-2.534-3.16-4.925-4.1-2.549-.993-4.482-.713-5.799.84-.311.385-.565.862-.763 1.428-.219.63-.301 1.219-.245 1.768.132 1.14.73 2.16 1.793 3.06.177.203 1.29.908 3.34 2.117 2.102 1.262 3.262 1.983 3.481 2.166a11.036 11.036 0 0 1 3.121 3.046c1.686 2.458 2.26 5.217 1.723 8.278-.181.925-.565 2.027-1.152 3.305a12.906 12.906 0 0 1-2.286 3.068c-1.08 1.072-2.276 1.82-3.589 2.245-1.831.597-3.82.68-5.964.251-.831-.148-2.049-.554-3.652-1.22a2.154 2.154 0 0 0-.362-.178c-2.608-1.226-4.544-2.66-5.808-4.3-.145-.192-.27-.289-.376-.29-.212.103-.747.322-1.606.658-1.06.408-1.611.622-1.653.642-.116.03-.348-.015-.694-.136-.378-.131-.603-.245-.675-.34-.125-.15-.142-.403-.053-.76.122-.452.671-2.079 1.647-4.88 1.195-3.431 1.841-5.183 1.937-5.256a1.05 1.05 0 0 1 .271-.17c.19-.04.663.072 1.418.335.819.285 1.28.481 1.384.588.176.203.171.572-.015 1.107-.498 1.733-.388 3.342.33 4.827.534 1.104 1.442 2.144 2.725 3.12 1.649 1.246 3.435 2.097 5.358 2.556.263.056.494.101.694.135.947.119 1.803-.007 2.567-.376.849-.41 1.554-1.118 2.116-2.122.811-1.518.847-3.04.109-4.568-.286-.7-.768-1.292-1.447-1.775-.104-.107-1.259-.845-3.465-2.213-2.113-1.23-3.304-1.964-3.575-2.2-2.099-1.472-3.492-3.351-4.178-5.638-.728-2.265-.672-4.505.17-6.718.873-2.202 2.203-3.891 3.99-5.07 1.713-1.167 3.791-1.661 6.234-1.48.822.074 1.574.195 2.257.362Zm16.472 10.305 1.129-1.402.506.408 3.676 3.088a343.956 343.956 0 0 0 6.465 5.205l3.763 2.901.506.408-1.129 1.402-1.129 1.402-2.103-1.693-2.103-1.694-6.773 8.413c-4.656 5.836-7.092 8.968-7.307 9.394-.042.052-.099.177-.173.374-.587 1.154-.775 2.265-.565 3.333.375 1.714 1.637 3.415 3.787 5.103 2.529 1.908 4.872 2.746 7.028 2.513 1.38-.172 2.788-.858 4.223-2.056.214-.213 2.487-2.983 6.82-8.31l6.396-7.945-2.103-1.694-2.103-1.693 1.129-1.402 1.129-1.402.39.314 2.78 2.367a204.272 204.272 0 0 0 4.985 4.013 1676.13 1676.13 0 0 0 2.906 2.212l.389.313-1.129 1.402-1.129 1.402-2.103-1.693-2.103-1.694-6.24 7.75c-4.243 5.271-6.462 8-6.655 8.187-1.598 1.666-3.473 2.745-5.625 3.238-2.381.566-4.827.308-7.338-.772a17.305 17.305 0 0 1-3.983-2.308c-2.586-1.997-4.51-4.125-5.774-6.383a14.59 14.59 0 0 1-1.163-2.541 11.31 11.31 0 0 1-.682-4.016c.053-2.14.64-4.064 1.759-5.773.12-.203 2.292-2.926 6.515-8.17l6.208-7.712-2.103-1.693-2.103-1.694 1.129-1.402Zm30.287 26.842 1.441-1.079 6.771 9.047c4.614 6.164 6.998 9.376 7.151 9.637 1.271 1.92 2.076 3.858 2.414 5.812.319 1.927.083 3.727-.705 5.4a7.458 7.458 0 0 1-1.171 1.688c-.568.633-1.278 1.186-2.132 1.658-1.421.605-2.907.76-4.46.466-1.633-.402-3.176-1.183-4.628-2.345l-.45-.35.17.31c1.47 2.855 1.948 5.412 1.432 7.671a8.562 8.562 0 0 1-1.783 3.459c-.2.233-.567.549-1.101.949-1.101.865-2.395 1.417-3.881 1.656-3.048.49-5.967-.573-8.757-3.189a41.093 41.093 0 0 1-.53-.54c-.646-.641-3.506-4.35-8.579-11.128l-7.221-9.647 1.441-1.079 1.441-1.079 1.618 2.162 1.618 2.162 10.848-8.12 10.848-8.12-1.618-2.161-1.618-2.162 1.441-1.078Zm12.071 19.381-.129-.34-2.717-3.712-2.756-3.683-4.524 3.386-4.563 3.415 2.157 2.882c1.498 2.002 2.321 3.073 2.467 3.213 1.759 1.848 3.818 2.263 6.179 1.246.08-.06.17-.107.27-.14a6.557 6.557 0 0 0 2.102-1.448c1.601-1.532 2.106-3.138 1.514-4.819Zm-11.019 9.31-.089-.37-3.026-4.043-2.997-4.003-5.083 3.805-5.084 3.805 2.667 3.563c1.997 2.668 3.232 4.18 3.705 4.533 1.879 1.342 3.962 1.26 6.251-.244a7.83 7.83 0 0 0 1-.749c.901-.799 1.582-1.558 2.042-2.278.815-1.359 1.02-2.699.614-4.02Z"/><path fill="#113971" d="m261.968 94.905 1.674-.661.239.604 1.671 4.501a391.016 391.016 0 0 0 3.27 8.277l2.096 5.032.257.651-1.674.662-1.674.661-1.231-3.115-1.25-3.163-12.602 4.98-12.602 4.979.791 1.999c.563 1.426.931 2.267 1.103 2.521a8.4 8.4 0 0 0 2.615 2.945c2.049 1.377 4.691 1.713 7.925 1.009 1.462-.291 2.395-.516 2.798-.676.031-.012.267.54.708 1.656l.661 1.674-.232.092c-.18-.001-2.504.649-6.972 1.948-4.617 1.287-6.963 1.927-7.037 1.92l-.232.092-5.274-13.346-5.254-13.299 1.674-.662 1.674-.661.992 2.511.992 2.511 12.602-4.979 12.602-4.979-.992-2.511-.992-2.512 1.674-.661Zm12.714 34.295 1.782-.256.099.693.598 4.865c.374 2.842.779 5.663 1.215 8.463l.803 4.885.092.644-1.781.256-1.782.256-.405-2.821-.405-2.821-13.413 1.926-13.412 1.926.405 2.821.405 2.821-1.782.256-1.781.256-.1-.693-.597-4.864c-.37-2.81-.775-5.631-1.216-8.463l-.803-4.886-.092-.643 1.782-.256 1.781-.256.406 2.821.405 2.821 13.412-1.926 13.412-1.927-.405-2.821-.405-2.821 1.782-.256Zm3.47 39.634a14.84 14.84 0 0 1-.402 4.032c-.38 1.814-1.154 3.502-2.32 5.066-.179.189-.255.334-.228.436.156.177.512.633 1.067 1.369.678.911 1.032 1.384 1.063 1.42.061.104.079.338.057.704-.025.4-.074.647-.147.743-.11.16-.349.245-.717.256-.468.004-2.199-.088-5.193-.275-3.726-.233-5.665-.471-5.817-.714-.058-.137-.061-.622-.01-1.453.052-.832.116-1.312.191-1.441.112-.194.47-.305 1.073-.334a11.77 11.77 0 0 0 3.003-.764 7.086 7.086 0 0 0 2.299-1.51c1.486-1.343 2.36-3.292 2.619-5.848.271-2.722-.519-4.508-2.37-5.358-.455-.196-.983-.312-1.581-.349-.666-.042-1.255.038-1.769.24-1.062.434-1.884 1.285-2.464 2.551-.147.225-.527 1.487-1.138 3.787-.649 2.364-1.031 3.676-1.148 3.936a11.05 11.05 0 0 1-2.092 3.827c-1.913 2.285-4.416 3.581-7.507 3.889-.94.075-2.105.002-3.494-.218a12.925 12.925 0 0 1-3.571-1.376c-1.322-.75-2.365-1.7-3.128-2.85-1.069-1.603-1.686-3.495-1.85-5.677-.081-.84-.018-2.121.19-3.845.044-.164.069-.296.075-.396.478-2.843 1.337-5.094 2.576-6.753.146-.191.205-.338.178-.44-.156-.176-.512-.633-1.067-1.369-.678-.91-1.032-1.383-1.063-1.419-.061-.104-.079-.339-.056-.705.025-.399.073-.646.146-.742.11-.16.349-.245.717-.256.468-.004 2.183.086 5.144.271 3.626.227 5.487.377 5.582.449.065.038.144.11.237.216.09.172.11.658.06 1.456-.054.865-.119 1.362-.194 1.491-.147.225-.504.319-1.069.284-1.803-.013-3.323.527-4.56 1.619-.919.811-1.676 1.966-2.271 3.465-.754 1.923-1.093 3.873-1.016 5.848.016.268.035.503.056.705.141.944.493 1.734 1.054 2.37.624.707 1.495 1.196 2.614 1.466 1.68.372 3.156-.003 4.429-1.126.596-.464 1.036-1.088 1.319-1.872.075-.128.474-1.439 1.197-3.933.616-2.366 1.001-3.711 1.154-4.035.853-2.419 2.287-4.266 4.304-5.543 1.986-1.312 4.158-1.861 6.516-1.647 2.356.248 4.341 1.073 5.957 2.477 1.586 1.334 2.622 3.203 3.106 5.604.15.811.237 1.568.259 2.271Z"/><path fill="#113971" d="m271.602 191.725 1.639.746-.269.592c.013-.031-.68 1.412-2.079 4.327a344.305 344.305 0 0 0-3.438 7.555l-1.876 4.365-.269.591-1.639-.745-1.638-.745 1.118-2.458 1.118-2.458-5.006-2.277-5.051-2.299-2.817 6.19-2.795 6.143 5.052 2.299 5.006 2.278 1.118-2.458 1.118-2.457 1.639.745 1.638.746-.269.591-2.058 4.282a344.305 344.305 0 0 0-3.438 7.555l-1.897 4.41-.269.592-1.638-.745-1.639-.746 1.119-2.457 1.118-2.458-12.334-5.612-12.333-5.611-1.118 2.457-1.118 2.458-1.639-.746-1.638-.745.269-.592 2.058-4.282a344.728 344.728 0 0 0 3.438-7.555l1.897-4.41.269-.592 1.638.746 1.638.745-1.118 2.458-1.118 2.457 5.689 2.589 5.643 2.568 2.796-6.144 2.816-6.19-5.643-2.567-5.689-2.589-1.118 2.458-1.119 2.457-1.638-.745-1.638-.746.269-.591 2.079-4.328a342.147 342.147 0 0 0 3.437-7.555l1.876-4.365.269-.591 1.639.745 1.638.746-1.118 2.457-1.118 2.458 12.333 5.611 12.334 5.612 1.118-2.457 1.118-2.458 1.638.745Z"/><path fill="#113971" d="m248.991 233.228 1.32 1.224-10.541 11.364-10.575 11.4-.147-.136c-.12-.066-1.878-1.333-5.273-3.8-3.276-2.447-5.022-3.726-5.239-3.836l-.146-.136 1.224-1.32 1.224-1.319.691.504c1.793 1.254 3.274 2.083 4.445 2.487 2.243.67 4.462.115 6.66-1.666.685-.591 1.867-1.792 3.544-3.6l2.142-2.309-3.995-3.707-4.033-3.74-.612.66c-1.042 1.124-1.667 2.067-1.875 2.83-.214.574-.228 1.129-.043 1.664.244.864.953 1.84 2.126 2.928l.477.442-1.224 1.319-1.224 1.32-5.609-5.202-5.609-5.203 1.225-1.32 1.224-1.319.476.442c1.173 1.088 2.2 1.722 3.079 1.901.548.144 1.1.088 1.657-.168.744-.264 1.638-.958 2.681-2.082l.612-.66-4.472-4.149-4.509-4.182-2.21 2.383c-1.61 1.735-2.504 2.724-2.684 2.966-2.141 2.652-2.967 5.159-2.477 7.523.033.258.167.678.401 1.259.447 1.233 1.44 2.859 2.978 4.876.444.503.692.824.744.963l.11.102-1.224 1.32-1.224 1.32-.11-.102c-.026-.07-1.55-2.006-4.57-5.808-3.045-3.825-4.58-5.772-4.607-5.842l-.11-.102 10.847-11.693 10.848-11.694 1.319 1.224 1.32 1.224-1.836 1.98-1.836 1.979 9.824 9.113 9.824 9.113 1.836-1.98 1.836-1.979 1.32 1.224Z"/><path fill="#113971" d="m223.013 258.708 1.007 1.491-8.578 5.792c-5.82 3.889-9.251 6.104-10.293 6.647-3.079 1.515-5.932 2.175-8.559 1.977-2.044-.228-3.787-1.022-5.228-2.382-.521-.533-.996-1.238-1.427-2.114a8.292 8.292 0 0 1-.502-2.978 8.93 8.93 0 0 1 .894-3.681c.31-.612.759-1.377 1.345-2.296l.303-.445-.444.058c-1.349.026-2.492-.147-3.428-.521-.723-.236-1.311-.542-1.767-.919-.473-.284-1.366-1.189-2.678-2.716-1.359-1.536-2.196-2.419-2.512-2.648-1.412-1.138-2.808-1.241-4.19-.308-.303.205-.506.382-.607.53-.235.843-.147 1.688.265 2.536.205.304.235.646.089 1.026-.137.213-.736.638-1.795 1.272-.194.131-.314.192-.36.183a.92.92 0 0 1-.709-.246c-.278-.174-.539-.621-.784-1.34-.658-1.929-.405-3.668.76-5.219.22-.269.45-.525.689-.767.763-.716 2.232-1.668 4.407-2.854 4.046-2.169 7.175-2.27 9.387-.305.167.129.33.28.488.455.158.175.759 1.036 1.804 2.583 1.138 1.685 1.934 2.716 2.389 3.092 1.208.955 2.495 1.312 3.862 1.073.498-.095 1.48-.637 2.944-1.625l.456-.308 2.196-1.483-3.357-4.973-3.385-5.014-2.238 1.511-2.238 1.51-1.007-1.491-1.007-1.492.539-.364 3.951-2.547a333.618 333.618 0 0 0 6.755-4.56l3.839-2.713.539-.364 1.007 1.492 1.007 1.492-2.238 1.511-2.237 1.511 7.581 11.23 7.582 11.23 2.238-1.511 2.238-1.51 1.007 1.492Zm-17.321 9.461c.239-.121 1.216-.76 2.929-1.917l2.237-1.51-3.357-4.973-3.357-4.973-2.652 1.79c-1.971 1.371-3.213 2.33-3.728 2.879a6.88 6.88 0 0 0-1.375 2.074c-.245.769-.152 1.651.279 2.647.496 1.033 1.247 2.175 2.253 3.426.941 1.215 1.938 1.829 2.992 1.841.194-.01.402-.03.624-.059.997-.191 2.049-.599 3.155-1.225Zm-96.651 9.037a14.834 14.834 0 0 1-3.775-1.474c-1.644-.855-3.061-2.055-4.253-3.599-.134-.223-.253-.336-.359-.337-.212.102-.747.322-1.606.658-1.06.408-1.61.622-1.653.642-.116.03-.348-.015-.694-.136-.378-.131-.603-.245-.675-.341-.125-.149-.142-.403-.053-.76.122-.451.676-2.094 1.663-4.927 1.229-3.525 1.98-5.328 2.255-5.409.148-.019.616.109 1.403.383s1.232.464 1.336.571c.156.16.167.535.032 1.123a11.777 11.777 0 0 0-.073 3.099c.104.918.382 1.792.834 2.62.893 1.794 2.535 3.16 4.926 4.099 2.548.993 4.481.714 5.799-.839.311-.386.565-.862.762-1.429.22-.629.301-1.219.246-1.768-.133-1.14-.73-2.16-1.793-3.06-.177-.202-1.29-.908-3.34-2.116-2.102-1.262-3.262-1.984-3.481-2.166a11.048 11.048 0 0 1-3.122-3.047c-1.685-2.458-2.259-5.217-1.722-8.277.181-.926.565-2.027 1.151-3.305a12.92 12.92 0 0 1 2.287-3.069c1.079-1.071 2.275-1.819 3.588-2.244 1.832-.598 3.82-.681 5.965-.252.831.148 2.048.555 3.652 1.219.147.087.267.146.361.179 2.609 1.227 4.545 2.66 5.809 4.301.145.191.27.288.376.289.212-.102.747-.322 1.606-.658 1.059-.407 1.61-.621 1.653-.642.116-.03.347.016.694.136.377.132.603.245.675.341.125.15.142.403.053.76-.122.452-.671 2.078-1.647 4.88-1.195 3.431-1.841 5.183-1.937 5.255a1.055 1.055 0 0 1-.271.17c-.19.04-.663-.072-1.419-.335-.818-.285-1.279-.481-1.383-.588-.177-.203-.172-.571.015-1.107.497-1.732.387-3.341-.331-4.827-.533-1.103-1.441-2.144-2.725-3.12-1.648-1.245-3.434-2.097-5.357-2.555a17.512 17.512 0 0 0-.694-.136c-.947-.118-1.803.007-2.567.377-.849.41-1.554 1.117-2.116 2.121-.811 1.518-.847 3.041-.109 4.569.286.7.768 1.291 1.447 1.775.104.106 1.258.844 3.464 2.213 2.113 1.23 3.305 1.963 3.576 2.199 2.099 1.472 3.492 3.352 4.178 5.638.728 2.266.671 4.505-.17 6.718-.873 2.202-2.203 3.892-3.99 5.07-1.713 1.168-3.791 1.661-6.235 1.481a15.167 15.167 0 0 1-2.256-.363Zm-16.472-10.305-1.13 1.402-.506-.408-3.676-3.088a344.184 344.184 0 0 0-6.465-5.205l-3.762-2.901-.506-.408 1.128-1.402 1.13-1.402 2.102 1.694 2.103 1.693 6.773-8.412c4.657-5.837 7.093-8.969 7.308-9.395.041-.052.1-.176.173-.374.586-1.154.775-2.265.564-3.333-.374-1.713-1.636-3.414-3.786-5.103-2.53-1.908-4.872-2.745-7.028-2.513-1.38.173-2.788.858-4.223 2.056-.214.213-2.488 2.983-6.82 8.311l-6.397 7.945 2.103 1.693 2.103 1.693-1.129 1.402-1.128 1.402-.39-.313-2.78-2.367a204.668 204.668 0 0 0-4.985-4.014 1672.517 1672.517 0 0 0-2.906-2.211l-.39-.314 1.13-1.402 1.128-1.402 2.103 1.694 2.103 1.693 6.24-7.75c4.244-5.271 6.463-8 6.656-8.186 1.598-1.666 3.473-2.746 5.624-3.239 2.381-.565 4.827-.308 7.338.773a17.255 17.255 0 0 1 3.983 2.308c2.587 1.997 4.511 4.124 5.774 6.382.435.736.823 1.583 1.164 2.542.474 1.323.702 2.662.682 4.015-.054 2.14-.64 4.064-1.759 5.773-.121.203-2.292 2.927-6.515 8.171l-6.209 7.712 2.103 1.693 2.103 1.693-1.129 1.402ZM62.282 240.06l-1.441 1.078-6.772-9.046c-4.614-6.165-6.997-9.377-7.15-9.637-1.272-1.921-2.076-3.859-2.415-5.812-.318-1.927-.083-3.727.706-5.4.3-.599.69-1.162 1.171-1.689.568-.632 1.278-1.185 2.132-1.658 1.42-.605 2.907-.76 4.46-.465 1.633.401 3.176 1.183 4.628 2.344l.45.351-.17-.311c-1.47-2.854-1.948-5.411-1.433-7.671a8.577 8.577 0 0 1 1.784-3.458c.2-.233.567-.55 1.1-.949 1.101-.866 2.395-1.418 3.882-1.656 3.047-.491 5.966.572 8.757 3.188.167.167.343.347.53.54.646.641 3.505 4.35 8.579 11.129l7.22 9.647-1.44 1.078-1.442 1.079-1.617-2.162-1.618-2.161-10.848 8.119-10.848 8.12 1.618 2.161 1.618 2.162-1.441 1.079ZM50.21 220.678l.13.34 2.716 3.713 2.756 3.682 4.523-3.385 4.564-3.416-2.158-2.882c-1.498-2.001-2.32-3.072-2.466-3.212-1.759-1.849-3.818-2.264-6.18-1.246a.935.935 0 0 1-.27.139 6.568 6.568 0 0 0-2.1 1.448c-1.602 1.532-2.107 3.138-1.515 4.819Zm11.018-9.309.09.37 3.026 4.043 2.996 4.002 5.084-3.805 5.084-3.805-2.667-3.562c-1.997-2.669-3.233-4.18-3.706-4.534-1.878-1.342-3.962-1.26-6.25.244-.34.213-.674.463-1 .749-.901.799-1.582 1.559-2.043 2.278-.814 1.359-1.019 2.699-.614 4.02Z"/><path fill="#113971" d="m39.736 206.911-1.674.662-.24-.605c.013.031-.544-1.469-1.67-4.501a397.153 397.153 0 0 0-3.27-8.277l-2.096-5.032-.257-.651 1.674-.662 1.674-.661 1.23 3.116 1.25 3.162 12.602-4.979 12.602-4.98-.79-1.999c-.563-1.426-.931-2.267-1.103-2.521a8.409 8.409 0 0 0-2.615-2.945c-2.05-1.377-4.691-1.713-7.925-1.008-1.462.29-2.395.516-2.798.675-.031.012-.267-.54-.708-1.656l-.661-1.674.232-.092c.18.001 2.504-.648 6.972-1.948 4.617-1.287 6.962-1.927 7.037-1.92l.232-.092 5.273 13.346 5.255 13.3-1.674.661-1.674.661-.992-2.511-.992-2.511-12.602 4.979-12.602 4.98.992 2.511.992 2.511-1.674.661Zm-12.714-34.295-1.782.256-.1-.693-.597-4.864c-.374-2.843-.78-5.664-1.215-8.464l-.803-4.885-.093-.643 1.782-.256 1.782-.256.405 2.821.405 2.821 13.413-1.926L53.63 154.6l-.405-2.821-.405-2.821 1.781-.256 1.782-.256.1.693.597 4.865c.37 2.809.775 5.63 1.216 8.463l.802 4.885.093.644-1.782.256-1.782.256-.405-2.822-.405-2.821-13.412 1.927-13.413 1.926.405 2.821.406 2.821-1.782.256Zm-3.471-39.633a14.86 14.86 0 0 1 .402-4.033c.381-1.813 1.154-3.502 2.32-5.065.18-.189.256-.335.229-.437-.156-.177-.512-.633-1.067-1.369a103.872 103.872 0 0 0-1.064-1.419c-.06-.104-.079-.339-.056-.705.025-.399.074-.647.147-.742.11-.16.349-.246.717-.256.468-.004 2.199.087 5.193.274 3.726.233 5.665.471 5.817.714.058.138.061.622.01 1.454-.053.831-.116 1.312-.191 1.441-.112.193-.47.304-1.073.333a11.777 11.777 0 0 0-3.003.765 7.065 7.065 0 0 0-2.299 1.509c-1.487 1.344-2.36 3.293-2.62 5.848-.27 2.722.52 4.508 2.37 5.359.456.195.983.311 1.582.349.665.041 1.255-.039 1.768-.24 1.063-.435 1.884-1.285 2.464-2.552.148-.224.527-1.486 1.139-3.786.648-2.364 1.03-3.676 1.147-3.936a11.038 11.038 0 0 1 2.093-3.827c1.913-2.285 4.415-3.582 7.507-3.89.94-.074 2.104-.002 3.493.219 1.252.278 2.443.737 3.572 1.375 1.322.751 2.365 1.701 3.128 2.851 1.069 1.603 1.685 3.495 1.85 5.676.08.84.017 2.122-.19 3.846a2.138 2.138 0 0 0-.075.396c-.479 2.842-1.337 5.093-2.577 6.752-.145.192-.204.338-.177.44.156.177.511.633 1.066 1.369.678.911 1.033 1.384 1.064 1.419.06.104.079.339.056.705-.025.399-.074.647-.146.742-.11.161-.35.246-.718.256-.468.004-2.182-.086-5.143-.271-3.626-.227-5.487-.376-5.583-.449a1.063 1.063 0 0 1-.237-.215c-.09-.173-.109-.658-.06-1.457.055-.865.12-1.362.194-1.491.148-.224.505-.319 1.07-.283 1.803.012 3.323-.528 4.56-1.619.919-.811 1.676-1.966 2.27-3.465.755-1.924 1.094-3.873 1.017-5.848a17.48 17.48 0 0 0-.056-.705c-.142-.944-.493-1.734-1.054-2.371-.624-.707-1.495-1.195-2.614-1.465-1.68-.373-3.157.003-4.429 1.126-.597.463-1.036 1.087-1.32 1.871-.074.129-.473 1.44-1.197 3.933-.615 2.366-1 3.711-1.154 4.036-.852 2.418-2.287 4.266-4.304 5.542-1.985 1.312-4.157 1.861-6.515 1.647-2.356-.247-4.342-1.073-5.957-2.476-1.587-1.335-2.622-3.203-3.107-5.605a15.309 15.309 0 0 1-.259-2.27Z"/><path fill="#113971" d="m30.101 110.091-1.638-.746.27-.591 2.078-4.328a343.988 343.988 0 0 0 3.438-7.555l1.876-4.364.269-.592 1.638.745 1.639.746-1.119 2.457-1.118 2.458 5.006 2.278 5.052 2.298 2.816-6.19 2.796-6.143-5.052-2.299-5.006-2.277-1.118 2.457-1.118 2.458-1.639-.746-1.638-.745.269-.592 2.058-4.282a343.92 343.92 0 0 0 3.438-7.555c1.278-2.97 1.91-4.44 1.896-4.41l.27-.592 1.638.746 1.638.745-1.118 2.458-1.118 2.457L58.837 84l12.334 5.612 1.118-2.458 1.118-2.457 1.639.745 1.638.745-.27.592-2.058 4.282a344.653 344.653 0 0 0-3.437 7.555l-1.897 4.41-.269.592-1.638-.745-1.639-.746 1.118-2.458 1.119-2.457-5.69-2.588-5.643-2.568-2.795 6.144-2.816 6.189 5.643 2.568 5.689 2.588 1.118-2.457 1.118-2.458 1.639.746 1.638.745-.27.592-2.078 4.327a345.226 345.226 0 0 0-3.437 7.555l-1.877 4.365-.269.592-1.638-.746-1.639-.745 1.119-2.458 1.118-2.457-12.334-5.612-12.333-5.612-1.118 2.458-1.118 2.457-1.639-.745Z"/><path fill="#113971" d="m52.713 68.588-1.32-1.224L61.934 56 72.51 44.6l.147.136c.12.066 1.878 1.333 5.273 3.8 3.276 2.448 5.022 3.727 5.239 3.837l.146.136-1.224 1.32-1.224 1.319-.691-.505c-1.793-1.253-3.275-2.082-4.445-2.486-2.243-.671-4.463-.116-6.66 1.665-.686.592-1.867 1.792-3.544 3.6l-2.143 2.31 3.996 3.706 4.032 3.74.612-.66c1.043-1.124 1.668-2.067 1.875-2.83.215-.574.23-1.128.044-1.664-.245-.864-.954-1.84-2.127-2.927l-.476-.442 1.224-1.32 1.224-1.32 5.609 5.203 5.608 5.202-1.224 1.32-1.224 1.32-.477-.442c-1.173-1.089-2.199-1.722-3.078-1.901-.548-.145-1.1-.089-1.657.168-.745.264-1.638.958-2.681 2.082l-.612.66 4.472 4.148 4.509 4.182 2.21-2.382c1.61-1.735 2.504-2.724 2.684-2.967 2.14-2.651 2.966-5.159 2.477-7.523-.034-.258-.167-.677-.401-1.258-.448-1.234-1.44-2.86-2.979-4.877-.443-.502-.691-.823-.743-.963l-.11-.102 1.224-1.32 1.224-1.32.11.103c.026.07 1.55 2.005 4.57 5.808 3.045 3.824 4.58 5.771 4.606 5.841l.11.102-10.847 11.694L76.32 90.487 75 89.263l-1.32-1.225 1.837-1.98 1.836-1.979-9.824-9.112-9.824-9.113-1.836 1.98-1.837 1.979-1.32-1.225Z"/><path fill="#113971" d="m78.69 43.109-1.006-1.492 8.578-5.791c5.82-3.89 9.251-6.105 10.293-6.647 3.079-1.516 5.932-2.175 8.558-1.978 2.045.229 3.788 1.023 5.228 2.383.521.533.997 1.237 1.427 2.113.357 1.006.525 1.999.503 2.979a8.958 8.958 0 0 1-.894 3.68c-.311.612-.759 1.377-1.346 2.296l-.302.445.443-.058c1.35-.026 2.493.148 3.429.521.722.236 1.311.543 1.766.92.474.283 1.366 1.189 2.679 2.716 1.359 1.535 2.196 2.418 2.511 2.648 1.412 1.138 2.809 1.24 4.19.308.304-.205.507-.382.607-.53.236-.843.148-1.689-.264-2.537-.205-.304-.235-.646-.089-1.026.137-.213.736-.637 1.795-1.272.194-.13.313-.191.36-.182a.917.917 0 0 1 .708.245c.279.174.54.621.785 1.34.658 1.93.405 3.669-.76 5.22-.221.269-.45.524-.689.766-.763.716-2.232 1.668-4.407 2.855-4.046 2.168-7.175 2.27-9.387.304a3.719 3.719 0 0 1-.488-.455c-.158-.174-.76-1.035-1.804-2.582-1.138-1.686-1.934-2.716-2.39-3.093-1.207-.954-2.494-1.312-3.861-1.073-.499.095-1.48.637-2.944 1.626l-.456.308-2.197 1.482 3.358 4.973 3.385 5.014 2.238-1.51 2.237-1.511 1.008 1.492 1.007 1.492-.539.363-3.951 2.547a331.252 331.252 0 0 0-6.755 4.56 3724.485 3724.485 0 0 0-3.84 2.713l-.538.364-1.007-1.492-1.007-1.492 2.237-1.51 2.238-1.511-7.582-11.23-7.581-11.23-2.238 1.51-2.238 1.51-1.007-1.491Zm17.322-9.462c-.24.122-1.216.76-2.929 1.917l-2.238 1.51 3.358 4.974 3.357 4.973 2.652-1.791c1.971-1.37 3.213-2.33 3.728-2.878a6.874 6.874 0 0 0 1.374-2.075c.245-.769.152-1.65-.279-2.647-.496-1.032-1.247-2.174-2.252-3.426-.941-1.215-1.939-1.828-2.993-1.84-.194.01-.402.03-.623.058-.998.191-2.05.6-3.155 1.225Zm53.413-10.473c-.117-.396-.104-.897.038-1.503.176-.608.401-1.218.677-1.83.307-.646.615-1.259.925-1.838.344-.582.625-1.044.845-1.386a6.51 6.51 0 0 1 2.354-2.398 7.196 7.196 0 0 1 3.261-1.034c1.397-.09 2.64.126 3.729.65a7.864 7.864 0 0 1 2.788 2.087c.77.903 1.364 1.963 1.78 3.18a12.74 12.74 0 0 1 .703 3.725 14.245 14.245 0 0 1-.301 3.665 19.593 19.593 0 0 1-1.065 3.346 32.009 32.009 0 0 1-1.57 3.217 159.785 159.785 0 0 1-1.822 3.177 33.245 33.245 0 0 1-3.308 4.788 153.646 153.646 0 0 1-3.872 4.462c-.159.173-.398.45-.716.83a28.67 28.67 0 0 1-.957 1.09 9.748 9.748 0 0 1-1.112.946c-.356.281-.683.428-.983.44-.232.043-.484.003-.756-.12a9.829 9.829 0 0 1-.773-.568 104.16 104.16 0 0 0-.776-.62 7.694 7.694 0 0 0-.622-.524 57.385 57.385 0 0 1-4.757-3.76 51.251 51.251 0 0 1-4.228-4.281 40.47 40.47 0 0 1-3.501-4.861 31.378 31.378 0 0 1-2.528-5.552c-.455-1.35-.717-2.857-.785-4.522-.036-1.7.199-3.294.706-4.783.505-1.521 1.303-2.805 2.395-3.85 1.125-1.047 2.62-1.608 4.485-1.684 1.333-.055 2.473.099 3.422.46.947.329 1.75.797 2.409 1.404a8.102 8.102 0 0 1 1.732 1.98 18.83 18.83 0 0 1 1.187 2.104l.996 3.563Zm2.812 251.608c.1.4.066.9-.1 1.5-.2.6-.45 1.2-.75 1.8a43.946 43.946 0 0 1-1 1.8 47.2 47.2 0 0 1-.9 1.35 6.504 6.504 0 0 1-2.45 2.3 7.195 7.195 0 0 1-3.3.9c-1.4.034-2.634-.233-3.7-.8a7.846 7.846 0 0 1-2.7-2.2c-.734-.933-1.284-2.016-1.65-3.25a12.75 12.75 0 0 1-.55-3.75c0-1.3.15-2.516.45-3.65.3-1.133.7-2.233 1.2-3.3a32.106 32.106 0 0 1 1.7-3.15 158.278 158.278 0 0 1 1.95-3.1 33.167 33.167 0 0 1 3.5-4.65c1.266-1.4 2.616-2.833 4.05-4.3.166-.166.416-.433.75-.8.3-.333.633-.683 1-1.05a9.76 9.76 0 0 1 1.15-.9c.366-.266.7-.4 1-.4.233-.033.483.017.75.15.233.167.483.367.75.6.266.234.516.45.75.65.233.234.433.417.6.55a57.683 57.683 0 0 1 4.6 3.95 51.508 51.508 0 0 1 4.05 4.45 40.571 40.571 0 0 1 3.3 5c.933 1.767 1.7 3.65 2.3 5.65.4 1.367.6 2.884.6 4.55-.034 1.7-.334 3.284-.9 4.75-.567 1.5-1.417 2.75-2.55 3.75-1.167 1-2.684 1.5-4.55 1.5-1.334 0-2.467-.2-3.4-.6-.934-.366-1.717-.866-2.35-1.5a8.097 8.097 0 0 1-1.65-2.05c-.434-.733-.8-1.45-1.1-2.15l-.85-3.6Z"/></svg>