<svg xmlns="http://www.w3.org/2000/svg" width="991" height="991" fill="none"><circle cx="495.5" cy="495.5" r="495.5" fill="#F19FC5"/><path fill="#113971" d="M633.238 78.513c4.098 1.004 7.873 2.478 11.326 4.422 4.93 2.565 9.183 6.165 12.757 10.799.402.67.762 1.006 1.078 1.01.636-.307 2.242-.965 4.818-1.974 3.179-1.222 4.832-1.864 4.959-1.926.349-.09 1.043.046 2.082.408 1.133.395 1.809.736 2.026 1.023.374.448.427 1.208.159 2.28-.366 1.354-2.03 6.281-4.991 14.78-3.684 10.577-5.94 15.986-6.765 16.228-.444.057-1.846-.325-4.207-1.148-2.36-.822-3.697-1.394-4.009-1.714-.468-.481-.5-1.604-.097-3.37.487-3.219.56-6.317.221-9.295a21.217 21.217 0 0 0-2.503-7.861c-2.679-5.38-7.605-9.48-14.778-12.296-7.644-2.981-13.443-2.142-17.396 2.517-.933 1.157-1.695 2.586-2.287 4.286-.658 1.888-.904 3.656-.736 5.303.397 3.421 2.19 6.481 5.379 9.181.529.608 3.869 2.724 10.019 6.349 6.305 3.786 9.787 5.951 10.443 6.498 3.793 2.486 6.915 5.533 9.365 9.14 5.055 7.373 6.778 15.651 5.167 24.832-.543 2.776-1.695 6.081-3.454 9.916a38.782 38.782 0 0 1-6.861 9.205c-3.237 3.214-6.825 5.458-10.764 6.733-5.495 1.792-11.46 2.044-17.895.755-2.492-.445-6.144-1.664-10.956-3.658-.439-.259-.8-.438-1.084-.537-7.825-3.679-13.633-7.979-17.425-12.901-.435-.575-.811-.865-1.127-.869-.637.308-2.243.966-4.818 1.975-3.179 1.222-4.832 1.864-4.96 1.925-.349.091-1.043-.045-2.081-.407-1.134-.395-1.809-.736-2.027-1.024-.373-.447-.426-1.207-.159-2.279.367-1.355 2.014-6.235 4.942-14.639 3.586-10.293 5.523-15.549 5.81-15.766.161-.156.432-.326.814-.511.571-.119 1.989.217 4.256 1.006 2.455.856 3.838 1.443 4.15 1.764.53.608.515 1.715-.044 3.32-1.494 5.198-1.164 10.026.99 14.482 1.6 3.311 4.325 6.431 8.176 9.361 4.946 3.735 10.304 6.29 16.073 7.665a54.21 54.21 0 0 0 2.081.407c2.842.355 5.409-.022 7.701-1.129 2.546-1.231 4.662-3.353 6.347-6.366 2.434-4.553 2.543-9.121.328-13.705-.857-2.099-2.304-3.874-4.34-5.325-.312-.32-3.777-2.533-10.395-6.639-6.338-3.691-9.914-5.89-10.726-6.596-6.298-4.418-10.475-10.056-12.533-16.915-2.186-6.798-2.016-13.516.509-20.155 2.619-6.606 6.609-11.675 11.97-15.208 5.139-3.505 11.373-4.986 18.703-4.444 2.464.223 4.72.585 6.769 1.087ZM691.809 113.194l3.387-4.206 1.519 1.223c-.078-.063 3.598 3.025 11.028 9.264a1026.7 1026.7 0 0 0 19.395 15.616l11.287 8.703 1.519 1.223-3.386 4.206-3.387 4.206-6.309-5.079-6.309-5.08-20.32 25.236c-13.97 17.511-21.277 26.905-21.921 28.184-.126.155-.299.53-.519 1.122-1.76 3.462-2.325 6.795-1.695 9.998 1.124 5.142 4.911 10.245 11.361 15.31 7.588 5.724 14.615 8.237 21.083 7.539 4.14-.518 8.364-2.574 12.67-6.169.642-.638 7.462-8.948 20.459-24.931l19.19-23.835-6.309-5.08-6.309-5.079 3.386-4.206 3.387-4.207 1.168.941 8.341 7.101a612.813 612.813 0 0 0 14.955 12.041c5.889 4.485 8.795 6.696 8.717 6.634l1.169.94-3.387 4.206-3.386 4.207-6.31-5.08-6.309-5.08-18.72 23.25c-12.731 15.812-19.386 23.998-19.966 24.559-4.794 4.998-10.419 8.236-16.874 9.715-7.142 1.696-14.48.923-22.013-2.318-4.242-1.746-8.225-4.055-11.949-6.924-7.759-5.991-13.533-12.373-17.322-19.147-1.305-2.206-2.468-4.748-3.49-7.624-1.425-3.972-2.107-7.988-2.047-12.048.16-6.418 1.92-12.191 5.278-17.319.361-.608 6.876-8.779 19.544-24.513l18.626-23.133-6.309-5.08-6.309-5.08 3.386-4.206ZM792.357 202.166l4.323-3.236 20.314 27.14c13.842 18.493 20.993 28.13 21.452 28.91 3.815 5.764 6.229 11.576 7.244 17.437.954 5.781.249 11.181-2.116 16.198-.902 1.799-2.073 3.488-3.515 5.067-1.702 1.898-3.833 3.556-6.395 4.974-4.261 1.816-8.722 2.281-13.381 1.397-4.899-1.205-9.527-3.549-13.883-7.033l-1.349-1.052.509.931c4.412 8.564 5.844 16.235 4.298 23.014a25.734 25.734 0 0 1-5.35 10.375c-.601.699-1.702 1.648-3.303 2.847-3.302 2.596-7.184 4.253-11.645 4.968-9.141 1.472-17.898-1.717-26.271-9.565-.499-.5-1.029-1.041-1.588-1.621-1.938-1.922-10.517-13.05-25.738-33.385l-21.662-28.941 4.323-3.236 4.323-3.236 4.854 6.485 4.854 6.485 32.543-24.359 32.543-24.359-4.853-6.484-4.854-6.485 4.323-3.236Zm36.214 58.145-.389-1.02-8.149-11.138-8.27-11.048-13.569 10.157-13.69 10.247 6.472 8.646c4.494 6.004 6.961 9.216 7.4 9.637 5.275 5.545 11.454 6.791 18.537 3.738.24-.18.51-.32.81-.42a19.654 19.654 0 0 0 6.304-4.343c4.805-4.596 6.319-9.414 4.544-14.456Zm-33.057 27.928-.269-1.11L786.167 275l-8.988-12.009-15.251 11.416-15.251 11.415 7.999 10.688c5.993 8.006 9.698 12.539 11.117 13.601 5.636 4.025 11.887 3.781 18.751-.732a23.369 23.369 0 0 0 3.002-2.248c2.702-2.397 4.745-4.675 6.127-6.834 2.444-4.077 3.058-8.097 1.841-12.058ZM867.266 312.117l5.022-1.984.717 1.813c-.037-.093 1.634 4.408 5.012 13.503a1185.358 1185.358 0 0 0 9.811 24.832l6.287 15.096.772 1.953-5.022 1.984-5.022 1.985-3.693-9.347-3.749-9.487-37.806 14.938-37.806 14.937 2.371 5.999c1.69 4.278 2.793 6.799 3.31 7.563 1.972 3.629 4.587 6.574 7.846 8.835 6.147 4.13 14.072 5.138 23.775 3.025 4.386-.873 7.183-1.548 8.393-2.026.093-.036.8 1.619 2.123 4.967l1.985 5.023-.698.275c-.538-.002-7.51 1.946-20.916 5.845-13.85 3.86-20.887 5.78-21.11 5.76l-.697.276-15.82-40.038-15.764-39.899 5.022-1.984 5.023-1.985 2.976 7.534 2.976 7.533 37.806-14.938 37.806-14.937-2.976-7.533-2.976-7.534 5.022-1.984ZM909.574 426.168l5.346-.767.298 2.078 1.793 14.594c1.124 8.526 2.339 16.99 3.646 25.389l2.409 14.657.277 1.93-5.345.767-5.346.768-1.215-8.463-1.216-8.463-40.237 5.779-40.237 5.779 1.216 8.463 1.215 8.463-5.345.768-5.345.767-.299-2.078-1.792-14.594a1097.118 1097.118 0 0 0-3.647-25.389l-2.408-14.657-.277-1.93 5.345-.768 5.345-.767 1.216 8.463 1.215 8.463 40.237-5.779 40.237-5.779-1.215-8.463-1.216-8.463 5.345-.768ZM920.649 553.892c.138 4.216-.264 8.249-1.206 12.098-1.142 5.439-3.462 10.504-6.961 15.195-.537.568-.764 1.005-.683 1.31.468.53 1.534 1.9 3.2 4.108 2.033 2.732 3.097 4.151 3.191 4.257.18.312.237 1.017.168 2.115-.075 1.197-.221 1.94-.44 2.227-.33.48-1.048.736-2.152.767-1.403.012-6.596-.262-15.579-.823-11.178-.699-16.995-1.413-17.45-2.142-.175-.412-.184-1.866-.028-4.361.156-2.495.346-3.936.57-4.323.337-.58 1.41-.913 3.219-1.001 3.231-.399 6.235-1.163 9.011-2.292a21.224 21.224 0 0 0 6.895-4.529c4.46-4.03 7.08-9.878 7.86-17.544.81-8.166-1.56-13.524-7.112-16.075-1.366-.586-2.947-.936-4.744-1.048-1.996-.125-3.764.116-5.305.721-3.188 1.304-5.651 3.855-7.392 7.654-.443.673-1.581 4.46-3.415 11.359-1.946 7.092-3.093 11.028-3.443 11.808-1.372 4.323-3.465 8.15-6.278 11.481-5.738 6.856-13.246 10.745-22.521 11.668-2.82.225-6.313.007-10.48-.654a38.777 38.777 0 0 1-10.713-4.126c-3.968-2.252-7.096-5.103-9.385-8.552-3.207-4.809-5.056-10.486-5.549-17.029-.244-2.52-.053-6.366.57-11.537.131-.493.206-.889.225-1.189 1.434-8.527 4.01-15.279 7.728-20.257.437-.574.614-1.014.533-1.319-.468-.531-1.534-1.9-3.2-4.108-2.033-2.732-3.097-4.151-3.191-4.257-.18-.312-.237-1.017-.168-2.115.075-1.197.221-1.94.44-2.227.33-.48 1.048-.736 2.152-.767 1.403-.012 6.546.259 15.429.814 10.879.679 16.462 1.128 16.749 1.347.193.112.43.327.711.645.268.518.327 1.975.178 4.37-.163 2.595-.356 4.086-.58 4.472-.443.674-1.513.958-3.21.852-5.408-.037-9.968 1.581-13.679 4.856-2.757 2.433-5.028 5.898-6.812 10.396-2.264 5.77-3.281 11.618-3.05 17.544.05.805.107 1.509.169 2.114.424 2.832 1.478 5.203 3.163 7.112 1.871 2.12 4.485 3.586 7.841 4.397 5.04 1.116 9.469-.01 13.286-3.378 1.79-1.391 3.11-3.263 3.958-5.614.225-.387 1.422-4.32 3.593-11.799 1.846-7.099 3-11.135 3.461-12.108 2.558-7.254 6.862-12.797 12.912-16.627 5.957-3.936 12.473-5.583 19.546-4.941 7.068.742 13.025 3.219 17.872 7.429 4.76 4.005 7.866 9.609 9.32 16.814.449 2.433.708 4.703.776 6.812ZM899.509 633.736l4.915 2.237-.808 1.775c.042-.091-2.037 4.236-6.236 12.983a1033.228 1033.228 0 0 0-10.313 22.664l-5.628 13.095-.808 1.774-4.915-2.236-4.915-2.236 3.355-7.373 3.354-7.373-15.018-6.833-15.155-6.896-8.449 18.569-8.386 18.431 15.155 6.896 15.018 6.833 3.355-7.372 3.354-7.373 4.916 2.236 4.915 2.237-.808 1.775-6.175 12.846a1037.916 1037.916 0 0 0-10.312 22.664c-3.835 8.912-5.732 13.322-5.69 13.231l-.808 1.775-4.915-2.236-4.915-2.236 3.354-7.373 3.355-7.373-37-16.835-37-16.835-3.355 7.373-3.354 7.373-4.916-2.237-4.915-2.236.808-1.775 6.175-12.846a1037.992 1037.992 0 0 0 10.312-22.665 9792.215 9792.215 0 0 0 5.69-13.231l.808-1.775 4.915 2.237 4.915 2.236-3.354 7.373-3.355 7.372 17.067 7.766 16.929 7.703 8.387-18.432 8.448-18.568-16.929-7.703-17.067-7.766-3.355 7.373-3.354 7.373-4.915-2.237-4.915-2.236.807-1.775a9861.8 9861.8 0 0 0 6.237-12.983 1033.194 1033.194 0 0 0 10.312-22.664l5.629-13.095.807-1.775 4.915 2.237 4.916 2.236-3.355 7.373-3.355 7.373 37 16.835 37.001 16.835 3.354-7.373 3.355-7.373 4.915 2.236ZM824.637 771.605l3.959 3.673-31.623 34.091-31.725 34.202-.44-.408c-.361-.199-5.634-3.999-15.819-11.4-9.828-7.344-15.067-11.18-15.716-11.51l-.44-.408 3.672-3.959 3.673-3.959 2.073 1.514c5.378 3.761 9.823 6.248 13.336 7.46 6.727 2.012 13.387.346 19.979-4.996 2.056-1.775 5.6-5.376 10.633-10.801l6.426-6.928-11.987-11.12-12.097-11.221-1.836 1.98c-3.128 3.372-5.003 6.202-5.625 8.49-.643 1.723-.686 3.387-.131 4.994.735 2.59 2.861 5.518 6.38 8.782l1.43 1.326-3.672 3.959-3.673 3.959-16.826-15.607-16.825-15.608 3.672-3.959 3.672-3.959 1.43 1.326c3.519 3.265 6.598 5.166 9.236 5.703 1.644.434 3.3.266 4.97-.505 2.234-.791 4.916-2.873 8.044-6.246l1.836-1.979-13.416-12.446-13.527-12.547-6.631 7.148c-4.828 5.206-7.512 8.172-8.05 8.9-6.424 7.954-8.901 15.477-7.432 22.569.1.775.501 2.033 1.204 3.776 1.342 3.7 4.32 8.576 8.934 14.63 1.331 1.507 2.074 2.47 2.232 2.888l.33.306-3.673 3.959-3.672 3.959-.33-.306c-.079-.209-4.649-6.017-13.71-17.423-9.134-11.473-13.741-17.315-13.82-17.524l-.33-.306 32.542-35.082 32.541-35.081 3.959 3.672 3.959 3.673-5.509 5.938-5.508 5.939 29.472 27.338 29.473 27.339 5.509-5.938 5.508-5.939 3.959 3.672ZM738.449 856.152l3.022 4.476-25.735 17.373c-17.461 11.668-27.753 18.315-30.878 19.942-9.237 4.547-17.796 6.524-25.676 5.932-6.134-.685-11.362-3.068-15.685-7.148-1.562-1.599-2.989-3.713-4.28-6.34-1.072-3.017-1.574-5.996-1.508-8.936.088-3.8.982-7.48 2.681-11.04.932-1.836 2.278-4.132 4.037-6.888l.908-1.337-1.331.174c-4.049.079-7.477-.442-10.285-1.562-2.167-.709-3.934-1.628-5.299-2.757-1.42-.851-4.098-3.568-8.036-8.149-4.076-4.608-6.588-7.256-7.535-7.944-4.235-3.414-8.425-3.723-12.569-.925-.912.615-1.519 1.146-1.821 1.591-.707 2.528-.442 5.065.793 7.609.615.912.704 1.937.267 3.077-.412.641-2.207 1.913-5.386 3.817-.58.392-.94.575-1.078.548-.804.06-1.513-.186-2.126-.737-.835-.522-1.62-1.863-2.354-4.022-1.975-5.785-1.215-11.004 2.281-15.656a32.821 32.821 0 0 1 2.066-2.3c2.29-2.149 6.697-5.004 13.222-8.564 12.138-6.505 21.525-6.81 28.16-.913.501.385.989.84 1.464 1.364.475.525 2.279 3.107 5.412 7.749 3.413 5.055 5.803 8.148 7.168 9.277 3.622 2.863 7.484 3.937 11.585 3.219 1.496-.286 4.44-1.912 8.833-4.877l1.367-.923 6.589-4.449-10.071-14.918-10.156-15.043-6.713 4.532-6.714 4.532-3.021-4.475-3.022-4.476 1.616-1.091c-.082.056 3.869-2.491 11.854-7.641a992.488 992.488 0 0 0 20.265-13.68c7.762-5.482 11.601-8.194 11.518-8.138l1.616-1.091 3.022 4.475 3.021 4.476-6.713 4.532-6.713 4.532 22.745 33.691 22.745 33.691 6.713-4.532 6.714-4.533 3.021 4.476Zm-51.963 28.385c.719-.365 3.647-2.282 8.786-5.751l6.713-4.532-10.071-14.919-10.072-14.918-7.957 5.371c-5.911 4.112-9.639 6.99-11.182 8.636-1.709 1.757-3.084 3.831-4.124 6.223-.736 2.306-.457 4.953.837 7.941 1.488 3.098 3.74 6.524 6.758 10.278 2.822 3.645 5.814 5.486 8.976 5.523a24.02 24.02 0 0 0 1.871-.178c2.993-.572 6.147-1.797 9.465-3.674ZM363.39 918.487c-4.098-1.004-7.873-2.478-11.326-4.422-4.93-2.565-9.183-6.165-12.757-10.799-.402-.669-.762-1.006-1.078-1.011-.636.308-2.242.966-4.818 1.975-3.179 1.222-4.832 1.864-4.959 1.926-.349.09-1.043-.046-2.082-.408-1.133-.395-1.809-.736-2.026-1.023-.374-.448-.427-1.208-.159-2.28.366-1.355 2.03-6.282 4.991-14.78 3.684-10.577 5.94-15.986 6.765-16.228.444-.057 1.846.325 4.207 1.148 2.36.822 3.697 1.394 4.009 1.714.468.481.5 1.604.097 3.37-.487 3.219-.56 6.317-.221 9.295a21.217 21.217 0 0 0 2.503 7.861c2.679 5.381 7.605 9.479 14.777 12.296 7.645 2.981 13.444 2.142 17.397-2.517.933-1.157 1.695-2.586 2.287-4.286.658-1.888.904-3.656.736-5.303-.397-3.421-2.19-6.481-5.379-9.181-.529-.608-3.869-2.724-10.019-6.349-6.305-3.786-9.787-5.951-10.443-6.498-3.793-2.486-6.915-5.533-9.365-9.14-5.055-7.373-6.778-15.651-5.167-24.832.543-2.776 1.695-6.081 3.454-9.916a38.782 38.782 0 0 1 6.861-9.205c3.237-3.214 6.825-5.458 10.764-6.733 5.495-1.792 11.46-2.044 17.895-.755 2.492.445 6.144 1.664 10.956 3.658.439.259.8.438 1.084.537 7.825 3.679 13.633 7.979 17.425 12.901.435.575.811.865 1.127.869.637-.308 2.243-.966 4.818-1.975 3.179-1.222 4.832-1.864 4.96-1.925.349-.091 1.043.045 2.081.407 1.134.395 1.809.736 2.027 1.024.373.447.426 1.207.159 2.279-.367 1.355-2.014 6.235-4.942 14.639-3.586 10.293-5.523 15.549-5.81 15.766-.161.156-.432.326-.814.511-.571.119-1.989-.217-4.256-1.006-2.455-.856-3.838-1.443-4.15-1.764-.53-.608-.515-1.715.044-3.32 1.494-5.198 1.164-10.026-.99-14.482-1.6-3.311-4.325-6.431-8.176-9.361-4.946-3.735-10.304-6.29-16.073-7.665a54.21 54.21 0 0 0-2.081-.407c-2.842-.355-5.409.022-7.701 1.129-2.546 1.231-4.662 3.353-6.347 6.366-2.434 4.553-2.543 9.121-.328 13.705.857 2.099 2.304 3.874 4.34 5.325.312.32 3.777 2.533 10.395 6.639 6.338 3.691 9.914 5.89 10.726 6.596 6.298 4.418 10.475 10.056 12.533 16.915 2.185 6.798 2.016 13.516-.509 20.155-2.619 6.606-6.609 11.675-11.97 15.208-5.139 3.505-11.373 4.986-18.703 4.444-2.464-.223-4.72-.585-6.769-1.087ZM304.819 883.806l-3.387 4.206-1.519-1.223c.078.063-3.598-3.025-11.028-9.264a1026.7 1026.7 0 0 0-19.395-15.616l-11.287-8.703-1.519-1.223 3.386-4.206 3.387-4.206 6.309 5.079 6.309 5.08 20.32-25.236c13.97-17.511 21.277-26.905 21.921-28.184.126-.155.299-.53.519-1.122 1.76-3.462 2.325-6.795 1.695-9.998-1.124-5.142-4.911-10.245-11.361-15.31-7.588-5.724-14.615-8.237-21.083-7.539-4.14.518-8.364 2.574-12.67 6.169-.642.638-7.462 8.948-20.459 24.931l-19.19 23.835 6.309 5.08 6.309 5.079-3.386 4.206-3.387 4.207-1.168-.941-8.341-7.101a612.813 612.813 0 0 0-14.955-12.041c-5.89-4.485-8.795-6.696-8.717-6.634l-1.169-.94 3.387-4.206 3.386-4.207 6.31 5.08 6.309 5.08 18.72-23.25c12.731-15.812 19.386-23.998 19.966-24.559 4.794-4.998 10.419-8.236 16.874-9.715 7.142-1.696 14.48-.923 22.013 2.318 4.242 1.746 8.225 4.055 11.949 6.924 7.759 5.991 13.533 12.373 17.322 19.147 1.305 2.206 2.468 4.748 3.49 7.624 1.425 3.972 2.107 7.988 2.047 12.048-.16 6.418-1.92 12.191-5.278 17.319-.361.608-6.876 8.779-19.544 24.513l-18.626 23.133 6.309 5.08 6.309 5.08-3.386 4.206ZM204.271 794.834l-4.323 3.236-20.314-27.14c-13.842-18.493-20.993-28.13-21.452-28.91-3.815-5.764-6.229-11.576-7.244-17.437-.954-5.781-.249-11.181 2.116-16.198.902-1.799 2.073-3.488 3.515-5.067 1.702-1.898 3.833-3.556 6.395-4.974 4.261-1.816 8.722-2.281 13.381-1.397 4.899 1.205 9.527 3.549 13.883 7.033l1.349 1.052-.509-.931c-4.412-8.564-5.844-16.235-4.298-23.014a25.734 25.734 0 0 1 5.35-10.375c.601-.699 1.702-1.648 3.303-2.847 3.302-2.596 7.184-4.253 11.645-4.968 9.141-1.472 17.898 1.717 26.271 9.565.499.5 1.029 1.041 1.588 1.621 1.938 1.922 10.517 13.05 25.738 33.385l21.662 28.941-4.323 3.236-4.323 3.236-4.854-6.485-4.854-6.485-32.543 24.359-32.544 24.359 4.854 6.484 4.854 6.485-4.323 3.236Zm-36.214-58.145.389 1.02 8.149 11.138 8.269 11.048 13.57-10.157 13.69-10.247-6.472-8.646c-4.494-6.004-6.961-9.216-7.4-9.637-5.275-5.545-11.454-6.791-18.537-3.738-.24.18-.51.32-.81.42a19.643 19.643 0 0 0-6.304 4.343c-4.805 4.596-6.319 9.414-4.544 14.456Zm33.057-27.928.269 1.11L210.461 722l8.988 12.009 15.251-11.416 15.251-11.415-7.999-10.688c-5.993-8.006-9.698-12.539-11.117-13.601-5.636-4.025-11.887-3.781-18.751.732a23.369 23.369 0 0 0-3.002 2.248c-2.703 2.397-4.745 4.675-6.127 6.834-2.444 4.077-3.058 8.097-1.841 12.058ZM129.362 684.883l-5.022 1.984-.717-1.813c.037.093-1.634-4.408-5.012-13.503a1185.358 1185.358 0 0 0-9.811-24.832l-6.287-15.096-.772-1.953 5.022-1.984 5.022-1.985 3.693 9.347 3.749 9.487 37.806-14.938 37.806-14.937-2.371-5.999c-1.69-4.278-2.793-6.799-3.31-7.563-1.972-3.629-4.587-6.574-7.846-8.835-6.147-4.13-14.072-5.138-23.775-3.025-4.386.873-7.183 1.548-8.393 2.026-.093.036-.8-1.619-2.123-4.967l-1.985-5.023.698-.275c.538.002 7.51-1.946 20.916-5.845 13.85-3.859 20.887-5.78 21.11-5.76l.697-.276 15.82 40.038 15.764 39.899-5.022 1.984-5.023 1.985-2.976-7.534-2.976-7.533-37.806 14.938-37.807 14.937 2.977 7.533 2.976 7.534-5.022 1.984ZM87.053 570.832l-5.345.767-.298-2.078-1.793-14.594c-1.124-8.526-2.34-16.99-3.647-25.389l-2.408-14.657-.277-1.93 5.345-.767 5.346-.768 1.215 8.463 1.215 8.463 40.238-5.779 40.237-5.779-1.216-8.463-1.215-8.463 5.345-.768 5.345-.767.299 2.078 1.792 14.594c1.11 8.428 2.325 16.891 3.647 25.389l2.408 14.657.277 1.93-5.345.768-5.345.767-1.216-8.463-1.215-8.463-40.237 5.779-40.237 5.779 1.215 8.463 1.216 8.463-5.346.768ZM75.978 443.109c-.137-4.217.265-8.25 1.207-12.099 1.142-5.439 3.462-10.504 6.961-15.195.537-.568.764-1.005.683-1.31-.468-.53-1.534-1.9-3.2-4.108-2.033-2.732-3.097-4.151-3.19-4.257-.181-.312-.238-1.017-.169-2.115.075-1.197.221-1.94.44-2.227.33-.48 1.048-.736 2.152-.767 1.403-.012 6.596.262 15.579.823 11.178.699 16.995 1.413 17.45 2.142.175.412.184 1.866.028 4.361-.156 2.495-.346 3.936-.57 4.323-.337.58-1.41.913-3.219 1.001-3.231.399-6.235 1.163-9.011 2.292a21.223 21.223 0 0 0-6.895 4.529c-4.46 4.03-7.08 9.878-7.86 17.544-.81 8.166 1.56 13.524 7.112 16.075 1.366.586 2.947.936 4.744 1.048 1.996.125 3.764-.116 5.305-.721 3.187-1.304 5.651-3.855 7.392-7.654.442-.673 1.581-4.46 3.415-11.359 1.946-7.092 3.093-11.028 3.443-11.808 1.372-4.323 3.465-8.15 6.278-11.481 5.738-6.856 13.245-10.745 22.521-11.668 2.82-.225 6.313-.007 10.48.654a38.777 38.777 0 0 1 10.713 4.126c3.968 2.252 7.096 5.103 9.385 8.552 3.207 4.809 5.056 10.486 5.549 17.029.244 2.52.053 6.366-.57 11.537-.131.493-.206.889-.225 1.189-1.434 8.527-4.01 15.279-7.728 20.257-.437.574-.614 1.014-.533 1.319.468.531 1.534 1.9 3.2 4.108 2.033 2.732 3.097 4.151 3.191 4.257.18.312.237 1.017.168 2.115-.075 1.197-.221 1.94-.44 2.227-.33.48-1.048.736-2.152.767-1.403.013-6.546-.259-15.429-.814-10.879-.679-16.462-1.128-16.749-1.347-.193-.112-.43-.327-.711-.645-.268-.518-.327-1.975-.178-4.37.162-2.595.356-4.086.58-4.472.443-.674 1.513-.958 3.21-.852 5.408.037 9.968-1.581 13.679-4.856 2.757-2.433 5.028-5.898 6.812-10.396 2.264-5.77 3.28-11.618 3.049-17.544a51.795 51.795 0 0 0-.168-2.114c-.424-2.832-1.478-5.203-3.163-7.112-1.871-2.12-4.485-3.586-7.841-4.397-5.04-1.116-9.469.01-13.286 3.378-1.79 1.391-3.11 3.263-3.958 5.614-.225.387-1.422 4.32-3.593 11.799-1.846 7.099-3 11.135-3.461 12.108-2.558 7.254-6.862 12.797-12.912 16.627-5.957 3.936-12.473 5.583-19.547 4.941-7.067-.742-13.024-3.219-17.871-7.429-4.76-4.005-7.866-9.609-9.32-16.814-.449-2.433-.708-4.703-.776-6.811ZM97.12 363.264l-4.916-2.237.808-1.775c-.042.091 2.037-4.236 6.236-12.983a1035.098 1035.098 0 0 0 10.313-22.664l5.628-13.095.808-1.774 4.915 2.236 4.915 2.236-3.355 7.373-3.354 7.373 15.018 6.833 15.155 6.896 8.449-18.569 8.386-18.431-15.155-6.896-15.018-6.833-3.355 7.372-3.354 7.373-4.916-2.236-4.915-2.237.808-1.775 6.175-12.846a1037.916 1037.916 0 0 0 10.312-22.664c3.835-8.912 5.732-13.322 5.69-13.231l.808-1.775 4.915 2.236 4.915 2.236-3.354 7.373-3.355 7.373 37 16.835 37 16.835 3.355-7.373 3.354-7.373 4.916 2.237 4.915 2.236-.808 1.775-6.175 12.846a1037.992 1037.992 0 0 0-10.312 22.665 9792.215 9792.215 0 0 0-5.69 13.231l-.808 1.775-4.915-2.237-4.915-2.236 3.354-7.373 3.355-7.372-17.067-7.766-16.929-7.703-8.387 18.432-8.448 18.568 16.929 7.703 17.067 7.766 3.354-7.373 3.355-7.373 4.915 2.237 4.915 2.236-.807 1.775a9861.8 9861.8 0 0 0-6.237 12.983 1033.194 1033.194 0 0 0-10.312 22.664l-5.629 13.095-.807 1.775-4.915-2.237-4.916-2.236 3.355-7.373 3.355-7.373-37-16.835-37.001-16.835-3.354 7.373-3.355 7.373-4.915-2.236ZM171.991 225.395l-3.959-3.673 31.623-34.091 31.725-34.202.44.408c.361.199 5.634 3.999 15.819 11.4 9.828 7.344 15.067 11.18 15.716 11.51l.44.408-3.672 3.959-3.673 3.959-2.073-1.514c-5.378-3.761-9.823-6.248-13.336-7.46-6.727-2.012-13.386-.346-19.979 4.996-2.056 1.776-5.6 5.376-10.633 10.801l-6.426 6.928 11.987 11.12 12.097 11.221 1.836-1.98c3.128-3.372 5.003-6.202 5.625-8.49.643-1.723.686-3.387.131-4.994-.734-2.59-2.861-5.518-6.38-8.782l-1.43-1.326 3.672-3.959 3.673-3.959 16.826 15.607 16.825 15.608-3.672 3.959-3.672 3.959-1.43-1.326c-3.519-3.265-6.598-5.166-9.236-5.703-1.644-.434-3.3-.266-4.97.505-2.234.791-4.916 2.873-8.044 6.246l-1.836 1.979 13.416 12.446 13.527 12.547 6.631-7.148c4.828-5.206 7.512-8.172 8.05-8.9 6.424-7.954 8.901-15.477 7.432-22.569-.1-.775-.501-2.033-1.204-3.776-1.341-3.7-4.32-8.576-8.934-14.63-1.331-1.507-2.074-2.47-2.232-2.888l-.329-.306 3.672-3.959 3.672-3.959.33.306c.079.209 4.649 6.017 13.71 17.423 9.134 11.473 13.741 17.315 13.82 17.524l.33.306-32.542 35.082-32.541 35.081-3.959-3.672-3.959-3.673 5.509-5.938 5.508-5.939-29.472-27.338-29.473-27.339-5.509 5.938-5.508 5.939-3.959-3.672ZM258.179 140.848l-3.022-4.476 25.735-17.373c17.461-11.668 27.753-18.315 30.878-19.942 9.237-4.547 17.796-6.524 25.676-5.932 6.134.685 11.362 3.068 15.685 7.148 1.562 1.599 2.989 3.713 4.28 6.34 1.072 3.017 1.574 5.996 1.508 8.936-.088 3.8-.982 7.48-2.681 11.04-.932 1.836-2.278 4.132-4.037 6.888l-.908 1.337 1.331-.174c4.049-.079 7.477.442 10.285 1.562 2.167.709 3.934 1.628 5.299 2.757 1.42.852 4.098 3.568 8.036 8.149 4.076 4.608 6.588 7.256 7.535 7.944 4.235 3.414 8.425 3.723 12.569.925.912-.615 1.519-1.146 1.821-1.591.707-2.528.442-5.065-.793-7.609-.615-.912-.704-1.937-.267-3.077.412-.641 2.207-1.913 5.386-3.817.58-.392.94-.575 1.078-.548.804-.06 1.513.186 2.126.737.836.522 1.62 1.863 2.354 4.022 1.975 5.785 1.215 11.004-2.281 15.656a32.572 32.572 0 0 1-2.066 2.3c-2.29 2.149-6.697 5.004-13.222 8.564-12.138 6.505-21.525 6.81-28.16.913-.501-.385-.989-.84-1.464-1.364-.475-.525-2.279-3.107-5.412-7.749-3.413-5.055-5.802-8.148-7.168-9.277-3.622-2.863-7.484-3.937-11.585-3.219-1.496.286-4.44 1.912-8.833 4.877l-1.367.923-6.589 4.449 10.072 14.918 10.155 15.043 6.713-4.532 6.714-4.532 3.021 4.475 3.022 4.476-1.616 1.091c.082-.056-3.869 2.491-11.854 7.641a995.261 995.261 0 0 0-20.265 13.68c-7.761 5.482-11.601 8.194-11.518 8.138l-1.616 1.091-3.022-4.475-3.021-4.476 6.713-4.532 6.713-4.532-22.745-33.691-22.745-33.691-6.713 4.532-6.714 4.533-3.021-4.476Zm51.963-28.385c-.719.365-3.647 2.282-8.786 5.751l-6.713 4.532 10.071 14.919 10.072 14.918 7.957-5.371c5.911-4.112 9.639-6.99 11.182-8.636 1.71-1.757 3.084-3.831 4.124-6.223.736-2.306.457-4.953-.836-7.941-1.488-3.098-3.741-6.524-6.758-10.278-2.823-3.645-5.815-5.486-8.977-5.523a24.02 24.02 0 0 0-1.871.178c-2.993.572-6.147 1.797-9.465 3.674ZM486.956 68.474c-.349-1.187-.31-2.69.116-4.508a41.212 41.212 0 0 1 2.029-5.487c.921-1.94 1.847-3.779 2.777-5.518a139.808 139.808 0 0 1 2.533-4.157c1.68-2.97 4.035-5.368 7.063-7.193 3.028-1.825 6.289-2.859 9.782-3.101 4.192-.271 7.922.378 11.188 1.946a23.585 23.585 0 0 1 8.362 6.265c2.313 2.708 4.093 5.888 5.343 9.54 1.246 3.552 1.948 7.277 2.107 11.173.159 3.897-.142 7.563-.903 10.996a58.593 58.593 0 0 1-3.194 10.039 96.232 96.232 0 0 1-4.711 9.65 476.408 476.408 0 0 1-5.466 9.53c-2.99 5.226-6.298 10.015-9.923 14.366a461.732 461.732 0 0 1-11.615 13.384c-.479.52-1.196 1.35-2.15 2.49a82.862 82.862 0 0 1-2.87 3.269 29.236 29.236 0 0 1-3.337 2.839c-1.066.844-2.049 1.284-2.949 1.321-.695.128-1.45.009-2.266-.358a29.217 29.217 0 0 1-2.321-1.707 289.582 289.582 0 0 0-2.328-1.857c-.728-.671-1.35-1.196-1.866-1.575a172.864 172.864 0 0 1-14.271-11.278 153.937 153.937 0 0 1-12.683-12.845 121.244 121.244 0 0 1-10.503-14.584c-3.013-5.182-5.542-10.733-7.584-16.655-1.366-4.048-2.151-8.57-2.355-13.565-.108-5.1.598-9.883 2.118-14.349 1.515-4.565 3.91-8.416 7.185-11.552 3.375-3.14 7.86-4.824 13.456-5.052 3.996-.163 7.418.298 10.264 1.383 2.843.985 5.252 2.389 7.228 4.21a24.33 24.33 0 0 1 5.196 5.943 56.314 56.314 0 0 1 3.56 6.31l2.988 10.687ZM509.198 916.037c.3 1.2.2 2.7-.3 4.5-.6 1.8-1.35 3.6-2.25 5.4-1 1.9-2 3.7-3 5.4-1.1 1.7-2 3.05-2.7 4.05-1.8 2.9-4.25 5.2-7.35 6.9-3.1 1.7-6.4 2.6-9.9 2.7-4.2.1-7.9-.7-11.1-2.4-3.2-1.6-5.9-3.8-8.1-6.6-2.2-2.8-3.85-6.05-4.95-9.75-1.1-3.6-1.65-7.35-1.65-11.25 0-3.9.45-7.55 1.35-10.95.9-3.4 2.1-6.7 3.6-9.9s3.2-6.35 5.1-9.45c1.9-3.1 3.85-6.2 5.85-9.3 3.2-5.1 6.7-9.75 10.5-13.95 3.8-4.2 7.85-8.5 12.15-12.9.5-.5 1.25-1.3 2.25-2.4.9-1 1.9-2.05 3-3.15 1.1-1 2.25-1.9 3.45-2.7 1.1-.8 2.1-1.2 3-1.2.7-.1 1.45.05 2.25.45.7.5 1.45 1.1 2.25 1.8s1.55 1.35 2.25 1.95c.7.7 1.3 1.25 1.8 1.65 4.8 3.7 9.4 7.65 13.8 11.85 4.3 4.2 8.35 8.65 12.15 13.35 3.7 4.8 7 9.8 9.9 15 2.8 5.3 5.1 10.95 6.9 16.95 1.2 4.1 1.8 8.65 1.8 13.65-.1 5.1-1 9.85-2.7 14.25-1.7 4.5-4.25 8.25-7.65 11.25-3.5 3-8.05 4.5-13.65 4.5-4 0-7.4-.6-10.2-1.8-2.8-1.1-5.15-2.6-7.05-4.5-2-1.8-3.65-3.85-4.95-6.15-1.3-2.2-2.4-4.35-3.3-6.45l-2.55-10.8Z"/></svg>