<?xml version="1.0" encoding="utf-8"?>
<!-- Generator: Adobe Illustrator 25.4.1, SVG Export Plug-In . SVG Version: 6.00 Build 0)  -->
<svg version="1.1" id="Layer_1" xmlns="http://www.w3.org/2000/svg" xmlns:xlink="http://www.w3.org/1999/xlink" x="0px" y="0px"
	 viewBox="0 0 1000 1000" style="enable-background:new 0 0 1000 1000;" xml:space="preserve">
<style type="text/css">
	.st0{fill:#FEE900;}
</style>
<circle class="st0" cx="500.5" cy="499.5" r="493.5"/>
<g>
	<path d="M511.9,185L528,83.4l42,6.7c23.3,3.7,39.4,17.3,35.3,42.9c-4,25-23.2,33-46.8,29.3l-20.4-3.2l-4.7,29.4L511.9,185z
		 M546.6,106.1l-5.3,33.7l19.7,3.1c11.2,1.8,19.9-1.5,21.8-13.5c2-12.7-5.3-18.4-16.5-20.2L546.6,106.1z"/>
	<path d="M602.8,203.8l36.7-96.1l20.4,7.8l-36.7,96.1L602.8,203.8z"/>
	<path d="M642.3,200c5.9-9.7,15.5-11.6,30.2-8.4l24.1,4.6c2.6-5.8,2-10.3-5.1-14.6c-8.1-4.9-18.3-4.9-26.7-1.2l-1.1-19.4
		c10.6-3,25.1-3,38.9,5.4c16.2,9.9,20.3,24.3,10.5,40.4l-13.4,22c-1.8,2.9-1.3,4.4,1.1,5.9l3.8,2.3l-9.1,14.9l-11-6.7
		c-6.9-4.2-11.3-11.2-5.7-20.4l2.6-4.3c-7.2,7.1-18.7,13.4-31.8,5.4C639.6,219.9,636,210.3,642.3,200z M664.9,216.5
		c8.9,5.4,16.6,4,21.4-3.9l2.7-4.5l-17-2.7c-6.4-1-9.2-0.2-10.7,2.3C659.4,210.8,660.5,213.7,664.9,216.5z"/>
	<path d="M682.2,262.8l19.2-6.7c-0.6,7.3,0.6,13.9,5.2,18.6c4.1,4.1,7.9,5.1,14.7,1.8l3.9-1.7l-9.4-9.5l32.9-66.7l17,17.2
		l-17.7,32.5l-14,21.6l21.9-13.7l32.6-17.4l17.3,17.5l-75.7,36.9c-16,7.6-27,5.4-36.9-4.6C685.3,280.6,682,270.3,682.2,262.8z"/>
	<path d="M789.3,328l21.2,6.5c-9.1,11.5-8.4,27.3-3.5,38.6c3.5,8.1,8.6,12.9,15.1,10.1c7.3-3.2,7-10.4,4.1-24l-2-10
		c-3.4-15.9-2.9-32.5,15-40.2c18.4-8,35.1,3.6,43.4,22.7c7.7,17.7,7.1,34.8-0.7,47.6l-21.3-6.9c7.2-10.5,7.8-23.7,3.1-34.5
		c-3.1-7.2-8.5-11-14-8.6c-6.9,3-6.8,10.1-4.8,20.9l2.1,11.8c3.5,19.3,1.6,34.4-15.3,41.7c-18,7.8-34.3-3.1-43.2-23.5
		C780.7,362,779.3,342.7,789.3,328z"/>
	<path d="M806.7,424l101.9-13.6l2.9,21.7l-49,6.5c12.5,0.8,24.4,6.5,26.4,21.8c1.9,14.1-5.6,23.9-21,26l-52,6.9l-2.9-21.7l44.4-5.9
		c9.1-1.2,14.4-4.4,13.1-14.3c-1.4-10.3-7.6-12.9-19.8-11.3l-41.2,5.5L806.7,424z"/>
	<path d="M853.7,505.7c22.7,2.8,37,19.4,34.3,42c-2.9,23.2-20.8,36-43.5,33.2c-22.9-2.8-37-19.5-34.2-42.8
		C813,515.5,830.8,502.9,853.7,505.7z M847.1,558.9c15.4,1.9,22-3.8,23.1-13c1.1-9.1-3.9-16.2-19.3-18.1c-15.2-1.9-22,3.8-23.1,12.9
		C826.7,549.9,831.9,557,847.1,558.9z"/>
	<path d="M803.1,592l76.3,13.6l-9.8,21.9l-36.7-10.1l-22.8-7l19.6,13.8l30.8,23.7l-10.1,22.6l-38.3-6.8l-23.2-5.5l20.4,12.3l32,20.5
		l-9.8,21.9L770.4,665l11.1-24.9l33.9,6.3l26.7,6.9l-22.9-15.3L792,616.8L803.1,592z"/>
	<path d="M758,681.5l57.3,48.7l-14.2,16.7l-18-15.3c8,10,12.8,23.8,3.5,34.7c-7.1,8.4-16.5,8.5-25.5,0.8
		c-6.2-5.3-9.5-11.3-10.6-14.6l13.7-16.1c0.3,3.9,2.7,9.4,6,12.1c3.3,2.8,7,3.4,10.1-0.3c4.9-5.7,3.2-16.3-6.3-24.4l-30.3-25.7
		L758,681.5z"/>
	<path d="M738,761.6c13.7,18.7,11.5,40.2-6.3,53.2c-19.2,14.1-38.3,8.4-50-7.5c-1.9-2.6-4.2-6.2-4.8-7.9l41.2-30.3
		c-7.4-7.7-16.1-7.6-24-1.8c-8.5,6.3-10.3,13.3-8.7,20.1l-18.6-2.9c-0.3-9.9,3.5-21.8,17.1-31.8C703.1,738.6,724.3,742.9,738,761.6z
		 M725.6,779.3l-25.9,19c6.5,7.6,14,8.7,21.9,2.9C729.2,795.7,730.7,788.1,725.6,779.3z"/>
	<path d="M664.7,812.9c8.6,21.5,0.9,41.7-19.6,49.9c-22.2,8.8-39.2-1.6-46.4-19.9c-1.2-3-2.5-7.1-2.7-8.8l47.5-18.9
		c-5.2-9.3-13.6-11.4-22.7-7.8c-9.8,3.9-13.4,10.3-13.6,17.3l-17.3-7.5c2.3-9.7,8.9-20.2,24.6-26.4
		C636.8,781.9,656.2,791.4,664.7,812.9z M648.2,826.9l-29.9,11.9c4.4,9,11.4,12,20.5,8.4C647.5,843.7,651,836.7,648.2,826.9z"/>
	<path d="M572.1,805.6l19.5,101l-21.5,4.2l-19.5-101L572.1,805.6z"/>
	<path d="M476.8,814.9l-21,100.7l-41.7-8.7c-23.1-4.8-38.5-19.2-33.2-44.6c5.2-24.8,24.8-31.8,48.1-27l20.2,4.2l6.1-29.2
		L476.8,814.9z M438.4,892l7-33.4l-19.5-4.1c-11.1-2.3-20,0.5-22.4,12.4c-2.6,12.6,4.4,18.6,15.5,20.9L438.4,892z"/>
	<path d="M387,791.7l-41.3,94.2l-20-8.8l41.3-94.2L387,791.7z"/>
	<path d="M347.3,793.6c-6.4,9.4-16,10.8-30.6,6.9l-23.8-5.8c-2.9,5.6-2.5,10.2,4.4,14.8c7.9,5.3,18.1,5.8,26.6,2.5l0.2,19.4
		c-10.8,2.5-25.3,1.8-38.6-7.2c-15.7-10.7-19.1-25.2-8.6-40.8l14.5-21.3c1.9-2.8,1.5-4.4-0.8-5.9l-3.7-2.5l9.8-14.5l10.6,7.2
		c6.7,4.6,10.7,11.7,4.7,20.6l-2.8,4.2c7.5-6.8,19.4-12.5,32-3.9C350.9,773.8,354.1,783.6,347.3,793.6z M325.5,776.1
		c-8.6-5.8-16.4-4.8-21.5,2.8l-2.9,4.3l16.9,3.5c6.3,1.3,9.2,0.7,10.8-1.8C330.7,782,329.8,779,325.5,776.1z"/>
	<path d="M310.4,729l-19.5,5.8c0.9-7.2,0.1-13.9-4.3-18.8c-3.9-4.3-7.6-5.5-14.6-2.5l-4,1.5l8.9,9.9l-36,65.1l-16.2-18l19.2-31.7
		l15-20.9l-22.5,12.6L203,747.9l-16.5-18.3l77.4-33.3c16.3-6.9,27.3-4.1,36.7,6.4C308.2,711.1,311,721.5,310.4,729z"/>
	<path d="M206.5,658.7l-20.9-7.5c9.6-11,9.7-26.9,5.3-38.4c-3.1-8.3-8-13.3-14.6-10.8c-7.5,2.8-7.5,10.1-5.3,23.8l1.5,10.1
		c2.6,16,1.3,32.6-16.9,39.5c-18.8,7.1-34.8-5.3-42.2-24.8c-6.8-18-5.4-35.1,3-47.5l20.9,8c-7.7,10.1-8.9,23.3-4.7,34.4
		c2.8,7.3,7.9,11.4,13.5,9.3c7-2.7,7.3-9.8,5.8-20.7l-1.5-11.9c-2.6-19.5,0.1-34.4,17.3-40.9c18.4-7,34.1,4.7,42,25.5
		C216.8,625.2,217.2,644.5,206.5,658.7z"/>
	<path d="M193.8,562l-102.5,8.7l-1.9-21.8l49.2-4.2c-12.4-1.4-24.1-7.6-25.4-23c-1.2-14.2,6.8-23.6,22.2-24.9l52.3-4.5l1.9,21.8
		l-44.7,3.8c-9.2,0.8-14.6,3.7-13.8,13.6c0.9,10.4,7,13.2,19.2,12.2l41.4-3.5L193.8,562z"/>
	<path d="M150.7,478.2c-22.5-3.9-36.1-21.1-32.2-43.6c4-23.1,22.5-35,45.1-31.1c22.7,3.9,36.1,21.3,32.1,44.3
		C191.8,470.3,173.4,482.1,150.7,478.2z M159.8,425.4c-15.3-2.6-22.1,2.7-23.7,11.9c-1.6,9.1,3.1,16.4,18.4,19
		c15.1,2.6,22.1-2.7,23.7-11.8C179.8,435.3,174.9,428,159.8,425.4z"/>
	<path d="M205.3,394.4l-75.6-17.2l10.9-21.4l36.2,11.8l22.4,8.1L180.3,361l-29.6-25.1l11.2-22.1l38,8.6l23,6.7l-19.8-13.3l-31-22.1
		l10.9-21.4l58.6,50.8l-12.3,24.3l-33.5-7.9l-26.3-8.2l22.2,16.4l26.1,22.5L205.3,394.4z"/>
	<path d="M254.7,307.1l-54.9-51.4l14.9-16l17.3,16.1c-7.5-10.4-11.7-24.3-1.9-34.9c7.5-8.1,16.9-7.7,25.5,0.4
		c5.9,5.6,9,11.7,9.9,15.1L251,251.9c-0.1-3.9-2.3-9.5-5.4-12.4c-3.1-2.9-6.9-3.7-10.1-0.2c-5.1,5.5-4,16.2,5.1,24.7l29,27.2
		L254.7,307.1z"/>
	<path d="M278.4,228.1c-12.8-19.3-9.5-40.7,8.8-52.8c19.9-13.2,38.7-6.5,49.5,9.9c1.8,2.7,3.9,6.4,4.5,8.1l-42.6,28.3
		c7,8.1,15.7,8.4,23.8,3c8.8-5.8,11-12.8,9.7-19.7l18.5,3.8c-0.2,9.9-4.6,21.6-18.6,30.9C312.2,252.7,291.3,247.4,278.4,228.1z
		 M291.7,211l26.8-17.8c-6.2-7.9-13.6-9.4-21.8-4C288.9,194.4,287,202,291.7,211z"/>
	<path d="M354.1,180.3c-7.5-21.9,1.1-41.7,21.9-48.9c22.6-7.7,39.1,3.5,45.4,22.1c1,3,2.1,7.2,2.3,9l-48.4,16.6
		c4.7,9.6,13,12.1,22.3,8.9c10-3.4,13.9-9.6,14.4-16.6l16.9,8.3c-2.7,9.5-9.9,19.8-25.8,25.2C380.5,212.7,361.6,202.3,354.1,180.3z
		 M371.3,167.2l30.4-10.4c-4-9.2-10.8-12.5-20-9.4C372.8,150.4,369,157.2,371.3,167.2z"/>
	<path d="M446.3,192.1L431.6,90.3l21.7-3.1L467.9,189L446.3,192.1z"/>
</g>
</svg>
