<svg width="10" height="14" viewBox="0 0 10 14" fill="none" xmlns="http://www.w3.org/2000/svg">
<path d="M3.57143 1.42851C3.57143 2.21744 4.21098 2.85714 5.00001 2.85714C5.78903 2.85714 6.42858 2.21744 6.42858 1.42851C6.42858 0.639578 5.78903 0 5.00001 0C4.21098 0 3.57143 0.639578 3.57143 1.42851V1.42851Z" fill="white"/>
<path d="M3.57143 4.99995C3.57143 5.78888 4.21098 6.42858 5.00001 6.42858C5.78903 6.42858 6.42858 5.78888 6.42858 4.99995C6.42858 4.21102 5.78903 3.57144 5.00001 3.57144C4.21098 3.57144 3.57143 4.21102 3.57143 4.99995V4.99995Z" fill="white"/>
<path d="M3.57143 8.57136C3.57143 9.36029 4.21098 10 5.00001 10C5.78903 10 6.42858 9.36029 6.42858 8.57136C6.42858 7.78243 5.78903 7.14285 5.00001 7.14285C4.21098 7.14285 3.57143 7.78243 3.57143 8.57136V8.57136Z" fill="white"/>
<path d="M3.57143 12.1428C3.57143 12.9317 4.21098 13.5714 5.00001 13.5714C5.78903 13.5714 6.42858 12.9317 6.42858 12.1428C6.42858 11.3538 5.78903 10.7143 5.00001 10.7143C4.21098 10.7143 3.57143 11.3538 3.57143 12.1428V12.1428Z" fill="white"/>
<path d="M7.14286 1.42851C7.14286 2.21744 7.78241 2.85714 8.57143 2.85714C9.36045 2.85714 10 2.21744 10 1.42851C10 0.639578 9.36045 0 8.57143 0C7.78241 0 7.14286 0.639578 7.14286 1.42851V1.42851Z" fill="white"/>
<path d="M0 1.42851C0 2.21744 0.639549 2.85714 1.42857 2.85714C2.21759 2.85714 2.85714 2.21744 2.85714 1.42851C2.85714 0.639578 2.21759 0 1.42857 0C0.639549 0 0 0.639578 0 1.42851V1.42851Z" fill="white"/>
</svg>
